<?xml version="1.0" encoding="utf-8"?>
<!-- Generator: Adobe Illustrator 16.0.0, SVG Export Plug-In . SVG Version: 6.00 Build 0)  -->
<!DOCTYPE svg PUBLIC "-//W3C//DTD SVG 1.1//EN" "http://www.w3.org/Graphics/SVG/1.1/DTD/svg11.dtd">
<svg version="1.1" id="Calque_1" xmlns="http://www.w3.org/2000/svg" xmlns:xlink="http://www.w3.org/1999/xlink" x="0px" y="0px"
	 width="841.89px" height="595.28px" viewBox="0 0 841.89 595.28" enable-background="new 0 0 841.89 595.28" xml:space="preserve">
<g>
	<defs>
		<rect id="SVGID_1_" width="841.89" height="595.28"/>
	</defs>
	<clipPath id="SVGID_2_">
		<use xlink:href="#SVGID_1_"  overflow="visible"/>
	</clipPath>
	<path clip-path="url(#SVGID_2_)" fill="#002632" d="M684.058,312.172c-0.357-2.412-0.875-4.763-1.728-7.064
		c-1.27-3.426-2.54-6.855-3.498-10.381c-0.469-1.728-1.015-3.442-1.367-5.192c-0.38-1.884-0.573-3.802-0.845-5.706
		c-0.143-1.001-0.341-1.999-0.403-3.004c-0.189-2.998-0.281-6.001-0.49-8.996c-0.259-3.708-0.416-7.41-0.047-11.12
		c0.1-1.008,0.107-2.024,0.168-3.036c0.091-1.548,0.13-3.102,0.303-4.642c0.158-1.407,0.441-2.804,0.709-4.198
		c0.439-2.285,1.291-4.408,2.727-6.291c0.18-0.235,0.313-0.502,0.465-0.748c-1.05-0.718-21.274-6.663-22.672-6.683
		c-0.2,0.564,0.189,0.901,0.562,1.173c0.917,0.669,1.843,1.333,2.818,1.916c1.241,0.744,2.538,1.399,3.803,2.108
		c0.304,0.171,0.571,0.405,0.854,0.61c-0.03,0.074-0.062,0.148-0.094,0.222c-2.498-0.211-4.996-0.48-7.521-0.133
		c0.056,0.149,0.061,0.246,0.104,0.266c0.312,0.146,0.624,0.299,0.95,0.409c2.713,0.914,5.23,2.194,7.578,3.793
		c0.315,0.215,0.596,0.48,1.074,0.871c-0.379-0.047-0.488-0.038-0.578-0.075c-2.273-0.95-4.678-1.305-7.123-1.404
		c-0.811-0.032-1.68-0.175-2.519,0.464c0.362,0.184,0.649,0.357,0.956,0.481c0.738,0.299,1.49,0.566,2.229,0.864
		c1.703,0.687,3.408,1.372,4.879,2.488c0.357,0.271,0.77,0.497,1.057,1.034c-0.516-0.104-0.885-0.195-1.259-0.25
		c-2.201-0.321-4.404-0.639-6.607-0.947c-0.506-0.07-1.014-0.076-1.583,0.39c1.098,0.587,2.064,1.182,3.096,1.641
		c2.729,1.213,5.374,2.55,7.649,4.484c0.381,0.324,0.758,0.653,1.138,0.98c-0.035,0.057-0.07,0.115-0.105,0.172
		c-0.605-0.214-1.219-0.409-1.815-0.645c-2.848-1.128-5.753-2.029-8.86-2.14c-0.535-0.019-1.093-0.139-1.721,0.346
		c2.162,1.079,4.276,2.013,6.262,3.158c2.004,1.157,3.848,2.562,5.676,4.166c-0.239,0.012-0.316,0.036-0.374,0.014
		c-0.356-0.134-0.712-0.269-1.059-0.424c-2.957-1.314-6.043-2.23-9.231-2.829c-0.591-0.112-1.194-0.17-1.843,0.099
		c0.475,0.65,1.108,0.864,1.677,1.171c1.184,0.641,2.397,1.236,3.541,1.937c2.208,1.355,4.297,2.876,6.236,4.576
		c0.693,0.609,1.434,1.215,1.945,2.245c-0.482-0.225-0.787-0.367-1.093-0.51c-1.813-0.854-3.587-1.809-5.454-2.535
		c-1.834-0.713-3.758-1.214-5.654-1.763c-0.352-0.102-0.791-0.279-1.21,0.077c0.257,0.616,0.777,0.961,1.271,1.321
		c2.139,1.564,4.317,3.079,6.417,4.69c1.827,1.402,3.516,2.958,5.011,4.899c-0.254-0.087-0.385-0.111-0.494-0.172
		c-1.745-0.973-3.465-1.994-5.24-2.912c-1.375-0.711-2.808-1.325-4.241-1.92c-0.608-0.252-1.275-0.447-2.197-0.202
		c2.167,1.949,4.359,3.612,6.284,5.533c1.912,1.908,3.985,3.688,5.565,5.912c-0.354-0.093-0.637-0.265-0.895-0.465
		c-0.515-0.401-0.987-0.861-1.53-1.22c-1.636-1.079-3.279-2.149-4.956-3.168c-1.087-0.662-2.233-1.231-3.357-1.834
		c-0.336-0.18-0.688-0.276-1.232-0.018c1.168,1.644,2.835,2.66,4.177,3.983c1.389,1.371,2.781,2.74,4.127,4.151
		c1.322,1.387,2.588,2.827,3.88,4.242c1.304,1.427,2.501,2.933,3.62,4.492c-2.41-1.986-4.739-4.042-7.146-6.008
		c-2.431-1.986-4.919-3.909-7.642-5.574c0.047,0.397,0.144,0.75,0.347,1.031c0.758,1.049,1.523,2.095,2.338,3.103
		c1.247,1.541,2.566,3.028,3.802,4.578c2.024,2.536,3.975,5.128,6.017,7.65c1.724,2.129,3.231,4.388,4.577,6.754
		c0.136,0.239,0.199,0.518,0.297,0.779c-0.641-0.449-1.118-0.976-1.586-1.51c-2.79-3.193-5.566-6.396-8.374-9.575
		c-0.835-0.946-1.77-1.81-2.64-2.728c-0.94-0.993-1.834-2.032-2.801-3c-0.459-0.459-0.938-0.955-1.74-1.177
		c0.071,0.329,0.069,0.574,0.175,0.764c0.541,0.978,1.084,1.956,1.678,2.905c0.484,0.778,1.055,1.506,1.559,2.274
		c1.158,1.766,2.307,3.539,3.446,5.316c1.342,2.09,2.727,4.157,3.992,6.29c1.895,3.193,3.385,6.576,4.713,10.024
		c0.224,0.584,0.342,1.205,0.509,1.81c-0.311-0.134-0.446-0.327-0.569-0.527c-1.036-1.681-2.025-3.391-3.115-5.038
		c-1.785-2.697-3.658-5.342-5.453-8.033c-2.024-3.034-4.093-6.034-6.442-8.843c-0.188-0.224-0.313-0.544-0.787-0.374
		c0.018,0.154-0.002,0.323,0.057,0.461c0.602,1.439,1.142,2.908,1.846,4.298c0.827,1.632,1.812,3.189,2.708,4.791
		c1.496,2.673,2.857,5.409,3.955,8.26c0.813,2.115,1.502,4.274,2.284,6.4c1.292,3.517,1.912,7.17,2.402,10.851
		c0.022,0.17-0.041,0.351-0.063,0.526c-0.067,0.014-0.134,0.025-0.201,0.037c-1.879-5.396-3.948-10.71-6.58-15.811
		c-2.622-5.082-5.013-10.281-8.437-14.958c-0.034,0.345,0.024,0.658,0.119,0.961c0.698,2.226,1.416,4.447,2.105,6.675
		c1.697,5.488,3.368,10.983,5.079,16.467c1.058,3.393,2.077,6.794,2.719,10.285c0.247,1.342,0.284,2.722,0.416,4.083
		c-0.09,0.024-0.18,0.047-0.27,0.071c-0.143-0.361-0.289-0.72-0.426-1.083c-0.649-1.744-1.304-3.486-1.944-5.233
		c-1.037-2.826-2.085-5.65-3.086-8.49c-0.484-1.371-0.831-2.787-1.308-4.161c-1.538-4.444-3.107-8.879-4.663-13.318
		c-0.292-0.831-0.555-1.672-0.867-2.496c-0.12-0.316-0.343-0.597-0.519-0.893c-0.09,0.015-0.179,0.03-0.269,0.047
		c-0.06,0.272-0.195,0.555-0.165,0.819c0.281,2.512,0.503,5.035,0.922,7.527c0.396,2.358,1.01,4.683,1.527,7.021
		c0.248,1.121,0.484,2.244,0.746,3.36c0.431,1.837,0.875,3.671,1.318,5.505c0.578,2.395,1.169,4.786,1.735,7.183
		c0.217,0.918,0.496,1.833,0.402,2.811c-0.33-0.447-0.582-0.917-0.777-1.405c-1.081-2.708-2.131-5.427-2.809-8.265
		c-0.164-0.688-0.441-1.351-0.663-2.026c-0.167-0.513-0.34-1.023-0.485-1.542c-0.35-1.236-0.649-2.486-1.03-3.714
		c-0.642-2.065-1.324-4.122-2.004-6.178c-0.839-2.538-1.69-5.074-2.549-7.605c-0.064-0.188-0.231-0.344-0.416-0.606
		c-0.403,0.748-0.479,1.396-0.395,2.08c0.343,2.741,0.445,5.507,1.023,8.226c0.397,1.878,0.535,3.811,0.953,5.684
		c0.69,3.098,1.511,6.168,2.282,9.248c0.657,2.622,1.363,5.232,1.972,7.865c0.401,1.741,0.725,3.505,0.982,5.271
		c0.253,1.735,0.382,3.488,0.56,5.234c0.02,0.197,0.003,0.4,0.003,0.602c-0.448-0.774-0.726-1.567-0.984-2.365
		c-1.664-5.116-3.327-10.233-4.982-15.353c-0.49-1.513-1.031-3.015-1.416-4.554c-0.73-2.916-1.322-5.865-2.053-8.781
		c-0.688-2.751-1.475-5.479-2.233-8.212c-0.102-0.367-0.291-0.71-0.521-1.253c-0.19,0.392-0.334,0.56-0.35,0.738
		c-0.068,0.807-0.2,1.623-0.129,2.422c0.277,3.124,0.446,6.26,1.004,9.354c0.516,2.857,0.967,5.729,1.596,8.562
		c0.688,3.094,1.552,6.151,2.328,9.228c0.181,0.72,0.313,1.453,0.471,2.179c0.373,1.714,0.775,3.423,1.117,5.145
		c0.54,2.719,0.768,5.476,0.949,8.234c0.031,0.47-0.028,0.943-0.032,1.415c-0.004,0.428,0.01,0.854,0.018,1.281
		c-0.501-1.339-0.829-2.681-1.185-4.016c-0.278-1.044-0.601-2.076-0.88-3.119c-0.84-3.136-1.629-6.285-2.516-9.408
		c-0.497-1.753-1.187-3.453-1.72-5.197c-0.84-2.75-1.668-5.504-2.415-8.277c-0.78-2.903-1.487-5.826-2.173-8.752
		c-0.423-1.809-0.735-3.64-1.121-5.456c-0.07-0.335-0.059-0.774-0.566-0.854c-0.065,0.043-0.152,0.069-0.174,0.12
		c-0.066,0.151-0.122,0.309-0.154,0.47c-0.396,2.007-0.369,4.047-0.137,6.046c0.387,3.346,0.948,6.673,1.51,9.994
		c0.437,2.592,0.99,5.166,1.479,7.749c0.309,1.62,0.588,3.245,0.896,4.864c0.119,0.629,0.311,1.245,0.417,1.876
		c0.228,1.36,0.37,2.735,0.641,4.087c0.49,2.447,1.069,4.878,1.571,7.323c0.44,2.141,1.026,4.26,1.091,6.465
		c0.04,1.377,0.137,2.752,0.208,4.129c-0.553-1.264-0.931-2.549-1.294-3.837c-0.549-1.952-1.093-3.905-1.631-5.86
		c-0.404-1.467-0.765-2.945-1.198-4.404c-0.585-1.972-1.249-3.921-1.825-5.895c-0.587-2.011-1.062-4.052-1.67-6.056
		c-0.872-2.88-1.816-5.739-2.737-8.605c-0.046-0.144-0.16-0.268-0.312-0.511c-0.559,0.526-0.64,1.139-0.607,1.703
		c0.109,1.949,0.229,3.901,0.468,5.837c0.248,2.005,0.618,3.996,0.975,5.986c0.417,2.32,0.873,4.636,1.322,6.952
		c0.366,1.885,0.733,3.771,1.125,5.65c0.371,1.781,0.752,3.561,1.167,5.332c0.424,1.806,0.772,3.617,0.783,5.486
		c-1.022-2.676-2.001-5.361-2.926-8.063c-0.932-2.721-1.843-5.449-2.699-8.192c-0.867-2.774-1.672-5.567-2.477-8.359
		c-0.788-2.737-1.539-5.484-2.306-8.226c-0.068-0.012-0.137-0.021-0.205-0.031c-0.089,0.222-0.205,0.438-0.261,0.668
		c-0.553,2.271-0.444,4.559-0.07,6.83c0.477,2.893,1.004,5.775,1.8,8.611c0.603,2.146,1.05,4.332,1.552,6.505
		c0.632,2.729,1.349,5.445,1.841,8.198c0.469,2.621,0.738,5.277,1.011,7.927c0.154,1.495,0.137,3.005,0.198,4.508
		c-0.256-0.133-0.339-0.298-0.387-0.474c-0.5-1.857-0.994-3.718-1.488-5.577c-0.321-1.209-0.657-2.415-0.949-3.632
		c-0.37-1.542-0.664-3.101-1.062-4.636c-0.381-1.468-0.88-2.907-1.275-4.372c-0.353-1.303-0.585-2.637-0.959-3.933
		c-0.824-2.855-1.694-5.698-2.567-8.539c-0.486-1.583-1.025-3.151-1.529-4.73c-0.39-1.225-0.754-2.458-1.145-3.682
		c-0.106-0.332-0.135-0.762-0.771-0.754c-0.402,1.109-0.563,2.276-0.551,3.446c0.025,2.271,0.584,4.475,1.087,6.68
		c0.511,2.236,1.059,4.464,1.558,6.702c0.199,0.889,0.268,1.805,0.472,2.691c0.379,1.645,0.881,3.263,1.212,4.914
		c1.188,5.93,1.791,11.936,2.398,17.938c0.026,0.271-0.034,0.55-0.055,0.825c-0.271-0.373-0.378-0.754-0.461-1.142
		c-0.727-3.393-1.457-6.786-2.171-10.182c-0.583-2.774-1.136-5.549-2.055-8.251c-0.762-2.238-1.332-4.538-1.999-6.807
		c-0.248-0.844-0.522-1.68-0.795-2.516c-0.763-2.346-1.514-4.696-2.309-7.032c-0.217-0.638-0.405-1.324-1.119-1.902
		c-0.185,1.399-0.471,2.653-0.491,3.912c-0.067,3.869,0.722,7.648,1.541,11.41c0.524,2.408,1.191,4.786,1.77,7.184
		c0.183,0.754,0.21,1.546,0.432,2.285c0.995,3.319,1.51,6.703,1.584,10.155c0.012,0.57,0.08,1.14,0.101,1.709
		c0.07,1.887,0.172,3.772,0.178,5.659c0.005,1.38-0.115,2.761-0.192,4.141c-0.058,1.009-0.157,2.012-0.517,2.978
		c-0.331-1.597-0.61-3.186-0.837-4.783c-0.212-1.5-0.305-3.018-0.561-4.51c-0.39-2.26-0.845-4.511-1.329-6.755
		c-0.448-2.073-0.961-4.133-1.467-6.194c-0.355-1.441-0.771-2.869-1.115-4.313c-0.608-2.557-1.198-5.117-1.768-7.682
		c-0.512-2.307-1.007-4.617-1.469-6.935c-0.382-1.917-0.697-3.848-1.064-5.769c-0.057-0.296-0.238-0.568-0.399-0.935
		c-0.771,0.833-0.858,1.716-0.953,2.587c-0.243,2.23-0.009,4.45,0.248,6.661c0.257,2.21,0.609,4.411,0.949,6.611
		c0.19,1.232,0.47,2.452,0.654,3.685c0.148,0.998,0.175,2.015,0.327,3.011c0.413,2.696,0.97,5.376,1.269,8.084
		c0.228,2.067,0.138,4.166,0.211,6.25c0.099,2.797-0.003,5.591-0.243,8.371c-0.222,2.587-0.606,5.163-0.96,7.738
		c-0.062,0.461-0.052,0.986-0.49,1.501c-0.062-0.575-0.12-1.007-0.152-1.439c-0.196-2.655-0.372-5.312-0.584-7.965
		c-0.206-2.585-0.421-5.17-0.683-7.749c-0.204-2.012-0.469-4.017-0.732-6.021c-0.256-1.939-0.505-3.88-0.83-5.808
		c-0.335-1.988-0.764-3.962-1.142-5.941c-0.475-2.486-0.971-4.968-1.4-7.461c-0.58-3.357-1.103-6.726-1.66-10.086
		c-0.073-0.438-0.217-0.862-0.328-1.293c-0.094-0.001-0.188-0.001-0.282-0.001c-0.115,0.324-0.273,0.641-0.341,0.975
		c-0.492,2.439-0.375,4.907-0.271,7.364c0.075,1.816,0.317,3.627,0.496,5.438c0.261,2.65,0.542,5.299,0.793,7.948
		c0.11,1.176,0.189,2.356,0.252,3.536c0.15,2.898,0.315,5.796,0.414,8.695c0.088,2.626,0.131,5.255,0.123,7.882
		c-0.004,1.887-0.117,3.773-0.193,5.661c-0.087,2.161-0.244,4.315-0.812,6.419c-0.115,0.431-0.31,0.844-0.55,1.48
		c-0.105-0.348-0.152-0.432-0.154-0.518c-0.021-1.247,0.021-2.498-0.066-3.74c-0.186-2.658-0.446-5.312-0.657-7.968
		c-0.206-2.588-0.38-5.179-0.584-7.769c-0.14-1.776-0.293-3.554-0.466-5.328c-0.271-2.778-0.556-5.556-0.846-8.332
		c-0.29-2.781-0.555-5.566-0.902-8.343c-0.314-2.507-0.737-5.001-1.093-7.503c-0.361-2.539-0.692-5.081-1.052-7.62
		c-0.054-0.376-0.196-0.74-0.339-1.258c-0.523,0.536-0.57,1.028-0.605,1.524c-0.115,1.616-0.287,3.23-0.332,4.849
		c-0.073,2.694-0.12,5.393-0.073,8.087c0.039,2.255,0.238,4.508,0.35,6.764c0.111,2.254,0.161,4.512,0.312,6.763
		c0.162,2.417,0.592,4.811,0.552,7.25c-0.035,2.156,0.139,4.314,0.115,6.472c-0.02,1.921-0.169,3.842-0.288,5.762
		c-0.106,1.717-0.239,3.432-0.382,5.146c-0.133,1.576-0.225,3.16-0.462,4.722c-0.351,2.304-0.819,4.59-1.629,6.792
		c-0.07,0.19-0.207,0.357-0.412,0.7c-0.009-0.35-0.023-0.484-0.016-0.619c0.135-2.391,0.302-4.78,0.4-7.173
		c0.102-2.426,0.145-4.854,0.197-7.282c0.037-1.685,0.084-3.369,0.062-5.055c-0.02-1.581-0.119-3.162-0.192-4.742
		c-0.123-2.688-0.183-5.383-0.396-8.065c-0.329-4.131-0.752-8.255-1.161-12.38c-0.212-2.147-0.46-4.291-0.728-6.433
		c-0.228-1.805-0.512-3.603-0.76-5.406c-0.271-1.969-0.579-3.934-0.78-5.909c-0.175-1.729-0.225-3.468-0.334-5.252
		c-0.472,0.171-0.701,0.535-0.861,1.002c-0.721,2.089-0.684,4.263-0.704,6.415c-0.019,2.013-0.049,4.029,0.118,6.048
		c0.191,2.313,0.204,4.641,0.312,6.961c0.064,1.413,0.169,2.825,0.237,4.236c0.021,0.396-0.041,0.795-0.026,1.19
		c0.059,1.715,0.179,3.428,0.186,5.142c0.006,1.484-0.115,2.968-0.173,4.45c-0.068,1.749-0.116,3.499-0.198,5.248
		c-0.036,0.768-0.147,1.532-0.201,2.299c-0.137,1.981-0.23,3.966-0.399,5.943c-0.146,1.708-0.357,3.412-0.567,5.114
		c-0.237,1.938-0.471,3.88-0.772,5.81c-0.188,1.199-0.561,2.371-0.742,3.57c-0.412,2.721-1.281,5.308-2.3,7.856
		c-0.171,0.427-0.408,0.827-0.614,1.239c-0.029-1.6,0.102-3.145,0.247-4.688c0.059-0.641,0.18-1.274,0.219-1.914
		c0.146-2.391,0.252-4.782,0.403-7.172c0.132-2.077,0.323-4.15,0.453-6.228c0.227-3.634,0.447-7.269,0.632-10.905
		c0.086-1.716,0.109-3.438,0.105-5.155c-0.007-2.394-0.049-4.786-0.107-7.18c-0.081-3.266-0.15-6.533-0.308-9.797
		c-0.091-1.885-0.37-3.761-0.521-5.644c-0.142-1.747-0.12-3.511-0.355-5.244c-0.458-3.388-0.49-6.796-0.713-10.195
		c-0.016-0.244-0.065-0.484-0.1-0.728c-0.081-0.015-0.162-0.027-0.243-0.041c-0.112,0.295-0.258,0.582-0.329,0.886
		c-0.244,1.053-0.515,2.104-0.678,3.17c-0.271,1.769-0.594,3.542-0.665,5.322c-0.134,3.365-0.098,6.736-0.146,10.104
		c-0.026,1.92-0.08,3.841-0.126,5.76c-0.031,1.348-0.05,2.695-0.111,4.043c-0.066,1.415-0.188,2.827-0.263,4.241
		c-0.158,2.998-0.271,5.998-0.469,8.993c-0.085,1.276-0.423,2.536-0.498,3.812c-0.167,2.848-0.855,5.604-1.461,8.374
		c-0.402,1.846-0.955,3.661-1.39,5.501c-0.636,2.694-1.188,5.41-2.157,8.02c-0.394,1.062-0.798,2.121-1.197,3.182
		c-0.21-0.188-0.267-0.346-0.251-0.497c0.08-0.796,0.195-1.589,0.269-2.387c0.352-3.862,1.176-7.672,1.298-11.565
		c0.064-2.082,0.446-4.154,0.658-6.232c0.276-2.719,0.443-5.45,0.812-8.157c0.402-2.96,0.243-5.927,0.353-8.891
		c0.073-2.021,0.188-4.043,0.232-6.064c0.034-1.516,0.015-3.033-0.03-4.55c-0.06-1.987-0.21-3.975-0.245-5.964
		c-0.048-2.63-0.03-5.261-0.024-7.891c0.01-3.608-0.223-7.226,0.434-10.81c0.05-0.27-0.002-0.558-0.007-0.837
		c-0.892,0.663-1.358,1.509-1.635,2.437c-0.588,1.973-1.33,3.909-1.526,5.977c-0.151,1.607-0.354,3.211-0.474,4.82
		c-0.125,1.68-0.11,3.372-0.279,5.048c-0.198,1.975-0.564,3.933-0.791,5.906c-0.292,2.548-0.51,5.103-0.773,7.652
		c-0.214,2.078-0.479,4.151-0.666,6.231c-0.212,2.351-0.31,4.713-0.552,7.061c-0.258,2.512-0.596,5.016-0.959,7.515
		c-0.256,1.77-0.599,3.529-0.923,5.289c-0.55,2.989-0.952,6.015-1.717,8.952c-0.832,3.192-1.695,6.397-3.032,9.446
		c-0.078,0.181-0.215,0.337-0.323,0.504c-0.072-0.024-0.145-0.05-0.217-0.074c0.202-1.541,0.469-3.077,0.595-4.624
		c0.269-3.29,0.472-6.586,0.688-9.881c0.065-1.004,0.057-2.012,0.132-3.015c0.127-1.681,0.345-3.357,0.436-5.041
		c0.185-3.402,0.257-6.812,0.476-10.212c0.218-3.397,0.562-6.788,0.848-10.182c0.062-0.74,0.112-1.482,0.171-2.223
		c0.149-1.919,0.233-3.845,0.466-5.754c0.428-3.521,0.925-7.037,1.43-10.549c0.404-2.809,0.841-5.615,1.309-8.415
		c0.183-1.096,0.506-2.169,0.735-3.259c0.273-1.288,0.533-2.58,0.761-3.877c0.071-0.404,0.136-0.854-0.246-1.246
		c-0.914,0.748-1.229,1.785-1.566,2.743c-1.259,3.571-2.433,7.171-3.616,10.767c-0.337,1.026-0.61,2.073-0.888,3.117
		c-0.528,1.988-1.036,3.981-1.553,5.973c-0.272,1.047-0.533,2.096-0.818,3.139c-0.384,1.399-0.895,2.776-1.161,4.196
		c-0.646,3.447-1.185,6.912-1.763,10.37c-0.29,1.731-0.609,3.459-0.846,5.197c-0.294,2.167-0.49,4.347-0.776,6.515
		c-0.176,1.336-0.46,2.659-0.662,3.993c-0.206,1.362-0.372,2.731-0.552,4.098c-0.27,2.043-0.529,4.087-0.808,6.128
		c-0.113,0.837-0.215,1.679-0.409,2.499c-0.359,1.51-0.821,2.997-1.172,4.508c-0.551,2.383-1.583,4.579-2.645,6.773
		c0.073-0.732,0.263-1.444,0.325-2.167c0.14-1.646,0.193-3.301,0.323-4.947c0.254-3.195,0.532-6.388,0.805-9.58
		c0.214-2.521,0.413-5.042,0.657-7.561c0.191-1.979,0.433-3.957,0.67-5.934c0.25-2.076,0.52-4.15,0.782-6.226
		c0.17-1.333,0.344-2.664,0.512-3.997c0.205-1.637,0.324-3.287,0.627-4.905c0.582-3.121,1.41-6.204,1.87-9.339
		c0.518-3.528,1.72-6.886,2.423-10.361c0.287-1.422,0.725-2.816,1.046-4.232c0.336-1.482,0.577-2.984,0.924-4.465
		c0.479-2.037,1.03-4.058,1.528-6.091c0.229-0.934,0.404-1.88,0.625-2.914c-0.735,0.229-1.172,0.657-1.43,1.268
		c-0.961,2.275-1.971,4.535-2.85,6.842c-0.674,1.767-1.207,3.588-1.753,5.398c-0.839,2.781-1.638,5.574-2.45,8.363
		c-0.585,2.011-1.182,4.02-1.74,6.037c-0.458,1.657-0.895,3.32-1.29,4.992c-0.395,1.673-0.73,3.358-1.083,5.042
		c-0.289,1.388-0.528,2.788-0.856,4.168c-0.273,1.146-0.68,2.263-0.961,3.408c-0.554,2.258-1.062,4.526-1.59,6.791
		c-0.177,0.756-0.389,1.505-0.524,2.267c-0.496,2.785-0.946,5.578-1.455,8.361c-0.395,2.154-0.851,4.298-1.286,6.444
		c-0.026,0.131-0.118,0.248-0.179,0.372c-0.07-0.015-0.141-0.028-0.211-0.044c0.004-0.39-0.022-0.782,0.016-1.169
		c0.186-1.912,0.392-3.822,0.582-5.732c0.099-0.975,0.176-1.95,0.271-2.926c0.187-1.913,0.298-3.838,0.588-5.736
		c0.578-3.771,1.264-7.527,1.89-11.292c0.614-3.691,1.079-7.405,2.126-11.024c0.619-2.139,0.999-4.342,1.518-6.509
		c0.753-3.154,1.506-6.309,2.312-9.449c0.689-2.682,1.334-5.384,2.219-8.006c0.891-2.639,1.404-5.359,2.166-8.022
		c0.079-0.273,0.234-0.599-0.285-0.865c-0.233,0.2-0.573,0.392-0.763,0.676c-0.546,0.818-1.094,1.646-1.528,2.523
		c-1.631,3.289-2.638,6.813-3.988,10.208c-0.359,0.904-0.497,1.889-0.807,2.813c-0.696,2.077-1.453,4.133-2.151,6.208
		c-0.355,1.057-0.61,2.145-0.959,3.203c-0.613,1.862-1.317,3.699-1.887,5.574c-0.904,2.973-1.742,5.964-2.584,8.953
		c-0.741,2.634-1.554,5.254-2.146,7.918c-0.9,4.055-1.656,8.141-2.441,12.22c-0.382,1.982-0.671,3.983-1.039,5.97
		c-0.697,3.752-1.42,7.499-2.141,11.246c-0.029,0.153-0.16,0.287-0.243,0.43c0.009-2.903,0.176-5.762,0.371-8.618
		c0.137-1.981,0.308-3.962,0.474-5.941c0.205-2.452,0.348-4.913,0.65-7.354c0.391-3.148,0.9-6.284,1.381-9.422
		c0.204-1.33,0.384-2.673,0.719-3.974c0.866-3.371,1.847-6.713,2.722-10.082c0.832-3.204,2.165-6.251,2.995-9.462
		c0.709-2.741,1.773-5.396,2.687-8.086c0.869-2.562,1.754-5.12,2.615-7.686c0.451-1.344,0.868-2.698,1.298-4.049
		c0.379-1.19,0.76-2.381,1.125-3.575c0.04-0.133-0.018-0.294-0.036-0.503c-0.685,0.174-0.98,0.639-1.3,1.061
		c-1.264,1.672-2.133,3.553-2.992,5.434c-0.831,1.82-1.606,3.663-2.41,5.495c-1.004,2.293-2.014,4.585-3.016,6.879
		c-0.611,1.397-1.165,2.819-1.824,4.194c-1.879,3.921-3.414,7.961-4.608,12.126c-0.847,2.952-1.774,5.883-2.574,8.847
		c-0.8,2.966-1.503,5.957-2.214,8.944c-0.188,0.786-0.226,1.603-0.363,2.399c-0.506,2.922-1.033,5.84-1.537,8.762
		c-0.221,1.277-0.407,2.562-0.608,3.843c-0.158-0.337-0.244-0.69-0.242-1.042c0.009-2.024-0.024-4.051,0.079-6.072
		c0.119-2.321,0.276-4.646,0.58-6.951c0.293-2.237,0.876-4.44,1.179-6.678c0.526-3.885,1.211-7.74,2.093-11.562
		c0.47-2.036,0.93-4.08,1.509-6.09c0.927-3.214,1.882-6.423,2.949-9.595c0.873-2.595,1.902-5.142,2.909-7.694
		c1.23-3.115,2.509-6.215,3.771-9.319c0.264-0.647,0.547-1.285,0.903-2.122c-0.439,0.144-0.745,0.159-0.909,0.314
		c-0.466,0.442-0.91,0.916-1.296,1.427c-0.409,0.542-0.739,1.139-1.102,1.714c-0.777,1.235-1.615,2.44-2.313,3.718
		c-0.764,1.397-1.386,2.867-2.092,4.295c-1.502,3.039-3.054,6.056-4.52,9.111c-1.585,3.305-2.744,6.768-3.946,10.218
		c-1.256,3.604-2.656,7.157-3.597,10.862c-0.591,2.322-1.404,4.589-1.708,6.98c-0.23,1.805-0.58,3.596-0.824,5.399
		c-0.17,1.263-0.248,2.538-0.374,3.807c-0.041,0.412-0.106,0.822-0.16,1.232c-0.089-0.001-0.179-0.002-0.268-0.003
		c-0.129-0.88-0.288-1.755-0.375-2.637c-0.101-1.005-0.158-2.015-0.193-3.023c-0.078-2.255-0.182-4.513-0.17-6.769
		c0.006-1.205,0.211-2.412,0.358-3.612c0.212-1.699,0.431-3.398,0.691-5.091c0.128-0.829,0.342-1.647,0.547-2.465
		c0.55-2.191,1.027-4.406,1.698-6.564c0.933-2.998,1.964-5.965,3.151-8.889c1.687-4.155,3.74-8.126,5.917-12.049
		c1.233-2.225,2.433-4.47,3.615-6.721c0.261-0.494,0.386-1.055,0.64-1.773c-0.418,0.162-0.68,0.192-0.83,0.333
		c-0.673,0.629-1.38,1.238-1.953,1.947c-1.438,1.776-2.841,3.58-4.195,5.417c-1.293,1.753-2.528,3.548-3.749,5.351
		c-1.506,2.221-3.014,4.442-4.212,6.846c-1.407,2.819-2.899,5.602-3.973,8.566c-0.378,1.046-0.715,2.105-1.047,3.165
		c-0.463,1.483-0.96,2.959-1.341,4.462c-0.537,2.121-1.046,4.254-1.447,6.402c-0.348,1.856-0.587,3.737-0.766,5.616
		c-0.143,1.51-0.144,3.033-0.166,4.551c-0.019,1.314,0.021,2.628,0.035,3.942c0.005,0.466,0.009,0.933,0.015,1.399
		c-0.642-1.53-1.049-3.093-1.186-4.7c-0.157-1.845-0.294-3.694-0.332-5.544c-0.029-1.441-0.14-2.888,0.146-4.335
		c0.227-1.155,0.285-2.344,0.408-3.518c0.146-1.374,0.174-2.768,0.44-4.118c0.577-2.915,1.189-5.828,1.944-8.704
		c0.918-3.493,1.963-6.96,3.515-10.251c1.387-2.941,2.802-5.871,4.25-8.785c0.768-1.547,1.491-3.12,2.532-4.529
		c0.31-0.419,0.48-0.934,0.76-1.492c-0.983-0.079-1.494,0.446-1.98,0.945c-1.627,1.672-3.009,3.53-4.32,5.439
		c-0.714,1.038-1.506,2.034-2.123,3.123c-1.302,2.303-2.518,4.652-3.76,6.987c-1.245,2.338-2.323,4.743-3.023,7.295
		c-0.188,0.684-0.394,1.363-0.585,2.046c-0.518,1.855-1.149,3.691-1.524,5.573c-0.712,3.579-1.421,7.168-1.554,10.825
		c-0.098,2.689-0.14,5.383-0.169,8.074c-0.012,1.099,0.075,2.197,0.125,3.484c-0.161-0.28-0.261-0.386-0.286-0.507
		c-0.318-1.516-0.736-3.022-0.91-4.555c-0.203-1.806-0.141-3.639-0.285-5.452c-0.212-2.628-0.036-5.243,0.218-7.852
		c0.183-1.879,0.611-3.736,0.801-5.615c0.188-1.864,0.746-3.636,1.252-5.421c0.652-2.302,1.432-4.57,2.079-6.874
		c0.973-3.463,2.395-6.764,3.883-10.029c1.179-2.59,2.585-5.08,3.882-7.618c0.083-0.163,0.101-0.357,0.188-0.688
		c-0.353,0.133-0.583,0.18-0.767,0.296c-1.321,0.853-2.41,1.935-3.236,3.248c-1.141,1.812-2.304,3.614-3.361,5.472
		c-1.176,2.062-2.472,4.069-3.298,6.309c-0.538,1.458-1.146,2.892-1.665,4.355c-0.7,1.974-1.38,3.956-2.002,5.953
		c-0.41,1.318-0.732,2.665-1.042,4.011c-0.47,2.04-0.978,4.078-1.317,6.14c-0.335,2.028-0.463,4.087-0.715,6.128
		c-0.317,2.581-0.487,5.166-0.334,7.767c0.031,0.521,0.022,1.044,0.032,1.565c-0.732-1.481-1.223-3.013-1.527-4.597
		c-0.415-2.162-0.563-4.336-0.533-6.54c0.033-2.4,0.092-4.79,0.417-7.17c0.134-0.972,0.26-1.943,0.416-2.911
		c0.217-1.331,0.415-2.667,0.704-3.983c0.225-1.02,0.552-2.02,0.874-3.015c0.626-1.928,1.153-3.899,1.955-5.758
		c1.312-3.044,2.519-6.134,4.191-9.031c1.527-2.645,2.912-5.366,4.692-7.868c0.088-0.123,0.103-0.293,0.235-0.698
		c-0.631,0.308-1.085,0.454-1.45,0.719c-1.512,1.095-2.816,2.405-4.001,3.823c-1.931,2.315-3.464,4.891-4.969,7.471
		c-1.315,2.256-2.467,4.602-3.718,6.894c-2.372,4.345-3.854,8.943-4.291,13.853c-0.096,1.07-0.395,2.135-0.401,3.202
		c-0.018,2.592,0.036,5.185,0.151,7.772c0.063,1.441,0.274,2.88,0.482,4.31c0.132,0.897,0.342,1.787,0.585,2.663
		c0.426,1.528,0.839,3.064,1.382,4.556c0.401,1.102,1.007,2.135,1.51,3.204c0.4,0.852,0.731,1.739,1.188,2.562
		c1.552,2.794,3.147,5.564,4.721,8.346c1.527,2.703,3.33,5.229,5.423,7.54c1.446,1.598,3.023,3.083,4.552,4.611
		c2.206,2.206,4.482,4.343,6.992,6.224c1.374,1.029,2.798,2.002,4.247,2.933c1.706,1.096,3.413,2.187,5.34,2.931
		c1.937,0.748,3.819,1.631,5.724,2.456c2.641,1.142,5.319,2.16,8.204,2.576c0.96,0.139,1.914,0.336,2.86,0.553
		c1.586,0.362,3.157,0.788,4.746,1.133c0.709,0.154,1.447,0.171,2.172,0.26c2.035,0.245,4.063,0.56,6.105,0.72
		c1.018,0.08,2.059-0.112,3.087-0.189c0.691-0.052,1.381-0.123,2.07-0.177c1.171-0.092,2.346,0.041,3.517-0.275
		c1.768-0.478,3.559-0.907,5.364-1.223c2.228-0.388,4.42-0.878,6.579-1.526c0.563-0.168,1.15-0.258,1.72-0.403
		c1.234-0.316,2.462-0.65,3.696-0.964c0.535-0.137,1.087-0.212,1.615-0.368c1.456-0.432,2.898-0.904,4.354-1.335
		c2.325-0.689,4.721-1.159,6.946-2.157c3.113-1.396,6.238-2.764,9.361-4.139c0.661-0.292,1.376-0.493,1.992-0.854
		c2.529-1.48,5.078-2.919,7.453-4.653c2.633-1.924,5.252-3.843,7.652-6.047c1.816-1.667,3.759-3.204,5.646-4.798
		c0.13-0.109,0.267-0.211,0.393-0.324c1.041-0.938,2.083-1.879,3.12-2.821c1.01-0.92,2.046-1.815,3.014-2.775
		c1.143-1.13,2.156-2.388,3.348-3.464c1.461-1.321,2.716-2.802,3.919-4.327c0.929-1.178,1.739-2.442,2.633-3.646
		c0.787-1.062,1.613-2.095,2.427-3.137c1.299-1.664,2.375-3.498,3.997-4.915c0.127-0.109,0.216-0.263,0.316-0.4
		c1.116-1.545,2.219-3.101,3.353-4.634c0.729-0.984,1.553-1.904,2.242-2.911c0.997-1.457,1.899-2.975,2.864-4.452
		c0.334-0.512,0.759-0.968,1.096-1.479c0.975-1.477,1.932-2.966,2.885-4.456c0.752-1.175,1.537-2.334,2.221-3.546
		c0.97-1.716,1.844-3.48,2.786-5.211c1.086-1.996,2.21-3.972,3.304-5.965c0.865-1.578,1.686-3.181,2.566-4.752
		c1.247-2.223,2.547-4.432,3.219-6.891c0.416-1.523,0.694-3.103,0.83-4.672c0.148-1.706,0.029-3.434,0.082-5.149
		C684.483,316.323,684.364,314.251,684.058,312.172"/>
	<path clip-path="url(#SVGID_2_)" fill="#002632" d="M525.446,195.625c2.58-1.764,5.603-2.482,8.526-3.401
		c2.904-0.913,5.879-1.618,8.813-2.446c0.997-0.282,1.956-0.69,2.95-0.987c1.924-0.573,3.835-1.168,5.662-2.005
		c1.758-0.805,3.544-1.553,5.328-2.305c1.078-0.454,2.158-0.913,3.266-1.29c4.292-1.464,8.613-2.847,12.889-4.353
		c3.931-1.384,7.936-2.481,12.043-3.227c1.225-0.223,2.472-0.345,3.714-0.47c1.691-0.17,3.385-0.352,5.083-0.433
		c2.743-0.132,5.49-0.185,8.234-0.273c1.321-0.042,2.643-0.068,3.962-0.139c2.151-0.115,4.3-0.307,6.451-0.384
		c3.858-0.137,7.725-0.123,11.577-0.344c2.906-0.167,5.793-0.62,8.693-0.909c2.447-0.244,4.895-0.511,7.35-0.632
		c3.191-0.158,6.389-0.232,9.584-0.249c2.675-0.014,5.356,0.042,8.027,0.188c2.252,0.123,4.531,0.242,6.729,0.683
		c2.887,0.579,5.731,1.392,8.544,2.256c2.205,0.677,4.541,1.012,6.57,2.198c0.11,0.064,0.343-0.069,0.576-0.124
		c-1.738-2.741-4.129-4.78-6.513-6.778c-2.84-2.38-5.846-4.573-8.79-6.832c-1.609-1.234-3.288-2.386-4.851-3.672
		c-2.088-1.718-4.445-3.001-6.847-4.219c-1.414-0.716-2.93-1.245-4.336-1.975c-2.109-1.096-4.195-2.223-6.482-2.948
		c-2.08-0.659-4.141-1.376-6.225-2.022c-2.214-0.685-4.442-1.331-6.672-1.968c-2.034-0.581-4.064-1.185-6.123-1.67
		c-1.62-0.382-3.3-0.523-4.92-0.904c-3.282-0.771-6.621-1.119-9.969-1.432c-0.689-0.065-1.387-0.125-2.078-0.107
		c-2.479,0.066-4.892,0.618-7.297,1.124c-3.261,0.686-6.492,1.513-9.723,2.332c-2.721,0.689-5.455,1.347-8.029,2.498
		c-2.019,0.904-4.178,1.504-6.091,2.644c-1.391,0.829-2.815,1.604-4.207,2.434c-2.605,1.555-5.195,3.135-7.797,4.7
		c-0.886,0.533-1.804,1.02-2.671,1.582c-1.414,0.915-2.836,1.826-4.186,2.826c-1.704,1.263-3.331,2.626-5.01,3.923
		c-0.923,0.714-1.894,1.367-2.82,2.075c-0.682,0.521-1.327,1.084-1.984,1.633c-0.736,0.615-1.511,1.194-2.194,1.861
		c-2.082,2.034-4.123,4.108-6.189,6.157c-1.046,1.036-2.184,1.994-3.159,3.089c-2.361,2.651-4.622,5.385-6.979,8.039
		c-1.756,1.976-3.458,3.972-4.487,6.419c-0.1,0.237-0.17,0.485-0.254,0.728c0.071,0.058,0.144,0.116,0.216,0.173
		C524.055,196.339,524.809,196.061,525.446,195.625"/>
	<path clip-path="url(#SVGID_2_)" fill="#002632" d="M671.429,177.578c-2.772-0.804-5.563-1.513-8.438-1.968
		c-2.987-0.139-5.974-0.296-8.96-0.406c-0.937-0.035-1.876,0.071-2.814,0.088c-1.878,0.032-3.762-0.038-5.633,0.086
		c-3.706,0.245-7.422,0.418-11.104,0.953c-0.792,0.115-0.933,0.231-0.961,1.037c-0.05,1.449-0.048,2.9-0.109,4.348
		c-0.12,2.796-0.301,5.59-0.397,8.387c-0.112,3.27-0.153,6.541-0.24,9.812c-0.025,1.011-0.114,2.022-0.144,3.034
		c-0.048,1.719-0.059,3.438-0.107,5.157c-0.055,1.954-0.157,3.907-0.194,5.862c-0.036,1.919-0.022,3.84-0.018,5.761
		c0.006,1.818,0.047,3.636,0.035,5.454c-0.006,0.901,0.015,1.015,0.855,1.211c3.078,0.719,6.149,1.469,9.245,2.118
		c4.25,0.891,8.483,1.836,12.638,3.095c1.59,0.482,3.196,0.911,4.796,1.361c1.369,0.385,2.738,0.769,4.108,1.15
		c2.676,0.744,5.354,1.475,8.026,2.232c1.067,0.303,2.119,0.654,3.174,0.995c1.879,0.606,3.767,1.191,5.627,1.848
		c0.827,0.292,1.571,0.53,2.275-0.21c0.16-0.168,0.383-0.298,0.6-0.398c1.038-0.48,1.463-1.152,1.427-2.375
		c-0.067-2.355,0.148-4.718,0.262-7.077c0.103-2.152,0.28-4.302,0.33-6.455c0.076-3.337,0.071-6.676,0.099-10.014
		c0.017-1.821,0.08-3.642,0.029-5.46c-0.094-3.369-0.276-6.735-0.387-10.104c-0.083-2.526-0.112-5.054-0.165-7.581
		c-0.04-1.953-0.073-3.907-0.124-5.86c-0.011-0.37-0.096-0.703-0.455-0.966c-2.046-1.5-4.259-2.668-6.745-3.33
		C675.779,178.782,673.596,178.206,671.429,177.578"/>
	<path clip-path="url(#SVGID_2_)" fill="#002632" d="M630.149,193.896c0.088-2.526,0.089-5.055,0.118-7.583
		c0.037-3.294,0.065-6.588,0.099-9.971c-0.472-0.024-0.881-0.082-1.286-0.059c-2.148,0.121-4.294,0.306-6.443,0.387
		c-3.543,0.133-7.089,0.178-10.631,0.312c-2.081,0.078-4.156,0.26-6.234,0.387c-1.492,0.09-2.985,0.163-4.478,0.248
		c-2.043,0.116-4.085,0.236-6.128,0.355c-2.146,0.124-4.298,0.212-6.439,0.39c-0.914,0.076-0.944,0.16-0.971,1.088
		c-0.065,2.288-0.078,4.578-0.143,6.866c-0.075,2.694-0.232,5.386-0.266,8.081c-0.054,4.281-0.025,8.563-0.05,12.844
		c-0.01,1.752-0.098,3.503-0.092,5.254c0.007,2.158,0.082,4.315,0.111,6.472c0.012,0.872-0.023,1.745-0.039,2.798
		c0.516-0.003,0.885,0.011,1.253-0.012c1.975-0.119,3.951-0.359,5.925-0.345c2.745,0.018,5.49,0.182,8.23,0.36
		c3.818,0.249,7.638,0.52,11.448,0.872c4.473,0.413,8.862,1.3,13.213,2.38c0.52,0.129,1.071,0.141,1.724,0.222
		c0.013-0.511,0.026-0.873,0.029-1.235c0.028-3.908-0.003-7.817,0.103-11.723c0.093-3.404,0.342-6.803,0.523-10.204
		C629.87,199.352,630.053,196.625,630.149,193.896"/>
	<path clip-path="url(#SVGID_2_)" fill="#002632" d="M584.708,205.036c0.052-1.787,0.048-3.575,0.088-5.362
		c0.053-2.428,0.149-4.856,0.177-7.284c0.022-1.887-0.021-3.774-0.059-5.661c-0.053-2.558-0.127-5.115-0.196-7.819
		c-0.994,0.227-1.812,0.391-2.615,0.603c-1.877,0.492-3.75,0.996-5.618,1.517c-0.9,0.251-1.799,0.519-2.678,0.835
		c-1.4,0.504-2.763,1.107-4.175,1.574c-2.927,0.967-5.884,1.849-8.812,2.813c-1.741,0.573-3.452,1.232-5.177,1.856
		c-0.685,0.247-1.37,0.494-2.05,0.754c-1.326,0.508-2.647,1.031-3.976,1.535c-0.58,0.221-0.914,0.647-0.982,1.211
		c-0.175,1.442-0.372,2.887-0.427,4.335c-0.137,3.574-0.216,7.15-0.283,10.725c-0.041,2.155-0.155,4.321,0.005,6.465
		c0.237,3.17,0.025,6.33,0.064,9.494c0.018,1.504,0.147,3.007,0.227,4.505c0.799,0.343,1.468,0.073,2.127-0.067
		c3.87-0.82,7.725-1.704,11.606-2.469c1.868-0.368,3.779-0.548,5.677-0.765c1.658-0.19,3.342-0.209,4.98-0.489
		c2.609-0.446,5.225-0.725,7.868-0.855c1.204-0.059,2.397-0.321,3.709-0.507c0.031-1.11,0.057-2.15,0.089-3.189
		C584.421,214.206,584.574,209.621,584.708,205.036"/>
	<path clip-path="url(#SVGID_2_)" fill="#002632" d="M710.778,225.989c0.073-2.932,0.144-5.867,0.116-8.799
		c-0.028-2.853,0.205-5.716-0.54-8.544c-0.499-1.89-0.718-3.856-1.658-5.618c-0.767-1.436-1.578-2.848-2.383-4.265
		c-0.133-0.233-0.306-0.456-0.501-0.644c-2.22-2.134-4.401-4.312-6.922-6.124c-1.643-1.182-3.141-2.547-4.94-3.535
		c-1.359-0.747-2.633-1.639-3.953-2.452c-0.755-0.465-1.529-0.902-2.496-1.47c0.049,2.043,0.05,3.885,0.148,5.722
		c0.089,1.647,0.348,3.286,0.419,4.933c0.121,2.83,0.174,5.663,0.219,8.496c0.035,2.19,0.04,4.382,0.013,6.572
		c-0.024,1.99-0.101,3.978-0.172,5.967c-0.036,1.012-0.139,2.022-0.162,3.034c-0.047,2.056-0.027,4.113-0.095,6.167
		c-0.088,2.699-0.246,5.395-0.347,8.094c-0.04,1.061-0.007,2.124-0.007,3.227c1.183-0.272,2.219-0.564,3.275-0.744
		c3.135-0.533,6.132-0.316,8.922,1.414c3.243,2.012,5.482,4.742,6.643,8.291c0.313,0.961,0.49,1.965,0.71,2.953
		c0.103,0.463,0.341,0.714,0.853,0.704c0.471-0.01,0.813-0.176,0.937-0.642c0.161-0.62,0.389-1.235,0.454-1.865
		c0.229-2.214,0.432-4.43,0.586-6.65c0.231-3.325,0.411-6.653,0.617-9.979C710.602,228.817,710.743,227.404,710.778,225.989"/>
	<path clip-path="url(#SVGID_2_)" fill="#8F6E2D" d="M572.639,311.724c2.027,0.795,3.985,1.753,5.997,2.585
		c3.109,1.284,6.082,2.798,8.89,4.63c1.613,1.054,3.29,2.021,4.967,2.979c1.884,1.077,3.848,2.027,5.689,3.168
		c2.24,1.389,4.636,2.448,7.115,3.312c2.318,0.808,4.739,1.363,7.212,1.331c2.464-0.032,4.948-0.217,7.315-0.941
		c1.848-0.564,3.651-1.285,5.435-2.026c2.929-1.216,5.567-2.903,8.003-4.885c0.845-0.687,1.391-1.603,1.818-2.566
		c0.39-0.88,0.121-1.303-0.863-1.526c-0.067-0.015-0.137-0.026-0.206-0.03c-1.25-0.081-2.511-0.3-3.749-0.216
		c-3.405,0.231-6.735-0.173-10.037-0.898c-3.408-0.75-6.069-2.646-8.161-5.288c-1.425-1.798-2.57-3.762-3.251-5.966
		c-0.367-1.19-1.019-2.201-2.33-2.676c-0.746-0.271-1.446-0.658-2.17-0.987c-3.559-1.613-7.159-3.103-10.934-4.209
		c-4.018-1.177-8.152-1.676-12.935-2.44c-2.073-0.117-4.812-0.351-7.552-0.405c-2.528-0.05-5.079-0.18-7.569,0.465
		c-0.167,0.044-0.339,0.081-0.511,0.101c-1.713,0.199-3.317,0.736-4.837,1.508c-1.663,0.846-2.57,2.236-2.896,3.99
		c-0.096,0.521-0.162,1.099-0.028,1.597c0.487,1.82,1.535,3.316,3.098,4.438c1.729,1.241,3.804,1.775,5.762,2.531
		C568.134,310.154,570.421,310.854,572.639,311.724 M563.227,300.855c-0.219-0.284-0.368-0.684-0.978-0.556
		c-0.57,1.372-0.201,2.732,0.048,4.129c-2.295-0.949-2.671-3.527-0.824-4.996c0.913-0.726,1.981-1.124,3.102-1.374
		c1.943-0.434,3.928-0.511,5.913-0.488c5.055,0.06,10.08,0.535,15.07,1.282c1.882,0.281,3.719,0.865,5.562,1.36
		c1.273,0.342,2.546,0.705,3.776,1.169c2.267,0.854,4.524,1.742,6.74,2.712c1.102,0.481,2.122,1.149,3.137,1.796
		c0.321,0.206,0.592,0.582,0.738,0.937c0.818,1.983,1.817,3.878,3.023,5.655c1.307,1.926,2.856,3.648,4.929,4.864
		c1.156,0.678,2.284,1.401,3.54,2.175c-0.651,1.012-0.854,2.164-0.723,3.409c0.131,1.239,0.761,2.215,1.587,3.293
		c-1.546,0.292-2.929,0.204-4.323-0.298c-2.159-0.778-3.579-2.398-5.026-3.997c-1.43-1.578-2.69-3.272-3.728-5.12
		c-0.093-0.166-0.23-0.309-0.345-0.459c-0.523,0.229-0.437,0.653-0.403,0.992c0.09,0.904,0.214,1.809,0.377,2.705
		c0.156,0.854,0.378,1.696,0.582,2.591c-0.896-0.463-2.396-2.05-3.809-4.087c-1.062-1.531-2.069-3.099-3.116-4.672
		c-0.556,0.315-0.417,0.745-0.416,1.124c0.001,1.826,0.622,3.509,1.301,5.176c0.112,0.274,0.245,0.542,0.31,0.854
		c-0.902-0.524-1.526-1.308-2.067-2.136c-1.396-2.138-2.742-4.306-4.115-6.459c-0.301-0.473-0.476-1.049-1.177-1.396
		c-0.677,1.716-0.09,3.356,0.099,5.189c-3.082-2.769-4.834-6.229-6.889-9.61c-0.568,1.237-0.414,2.487,0.675,6.209
		c-0.272-0.205-0.457-0.318-0.607-0.463c-1.885-1.79-2.863-4.124-4.04-6.338c-0.176-0.33-0.312-0.682-0.517-0.993
		c-0.114-0.175-0.333-0.285-0.618-0.521c-0.903,2.066-0.4,3.993-0.013,5.941c-2.762-2.091-4.774-4.761-6.721-7.608
		c-0.617,0.681-0.423,1.396-0.385,2.057c0.041,0.696,0.181,1.388,0.303,2.266c-1.313-0.94-2.386-1.888-3.318-2.945
		c-0.915-1.038-1.666-2.212-2.486-3.324c-0.603,0.503-0.603,0.503-0.222,3.995c-0.315-0.223-0.561-0.371-0.775-0.552
		C565.18,303.318,564.185,302.104,563.227,300.855"/>
	<path clip-path="url(#SVGID_2_)" fill="#002632" d="M546.189,191.405c-0.514,0.117-0.879,0.171-1.226,0.283
		c-2.011,0.649-4.002,1.363-6.03,1.956c-2.561,0.749-5.213,1.185-7.718,2.13c-1.454,0.55-2.933,1.054-4.348,1.691
		c-1.672,0.752-1.646,0.805-1.873,2.559c-0.017,0.134-0.031,0.268-0.045,0.403c-0.221,2.074-0.451,4.148-0.659,6.224
		c-0.144,1.443-0.29,2.887-0.377,4.334c-0.126,2.119-0.204,4.242-0.297,6.363c-0.105,2.42-0.249,4.84-0.297,7.261
		c-0.038,1.917,0.036,3.836,0.079,5.754c0.009,0.426,0.098,0.85,0.172,1.449c0.722-0.159,1.26-0.27,1.795-0.396
		c2.429-0.573,4.839-1.248,7.292-1.699c2.926-0.538,5.89-0.887,8.838-1.311c1.03-0.149,2.065-0.26,3.092-0.42
		c1.008-0.156,1.054-0.205,1.114-1.233c0.049-0.839,0.087-1.683,0.053-2.522c-0.079-1.879-0.226-3.755-0.306-5.633
		c-0.061-1.447-0.062-2.896-0.091-4.345c-0.062-3.03-0.156-6.06-0.175-9.09c-0.012-1.783,0.064-3.569,0.16-5.351
		c0.09-1.649,0.236-3.295,0.396-4.939C545.849,193.768,546.023,192.67,546.189,191.405"/>
	<path clip-path="url(#SVGID_2_)" fill="#002632" d="M506.44,240.062c-0.042,2.598,0.68,5.002,1.773,7.321
		c0.431,0.913,0.933,1.808,1.514,2.637c1.303,1.859,3.08,3.292,4.77,4.798c0.921,0.821,1.874,1.61,2.83,2.393
		c0.36,0.295,0.708,0.668,1.228,0.58c0.574-2.376,1.141-4.723,1.711-7.088c-0.18-0.114-0.378-0.252-0.588-0.37
		c-2.339-1.312-4.364-2.993-6.169-4.934c-0.836-0.9-1.317-1.961-1.578-3.2c0.774-0.35,1.457-0.66,2.189-0.991
		c-0.094-0.335-0.151-0.593-0.238-0.841c-0.449-1.271-0.927-2.533-1.352-3.812c-0.229-0.687-0.138-0.786,0.507-1.1
		c2.278-1.107,4.635-1.985,7.159-2.404c0.396-0.066,0.772-0.239,1.129-0.353c-0.006-1.114,0.015-2.123-0.023-3.131
		c-0.067-1.849-0.297-3.702-0.23-5.545c0.114-3.233,0.411-6.46,0.614-9.69c0.131-2.082,0.152-4.172,0.361-6.245
		c0.246-2.439,0.34-4.901,0.941-7.301c0.08-0.32-0.022-0.683-0.044-1.119c-0.543,0.182-0.98,0.245-1.318,0.457
		c-1.254,0.785-2.528,1.556-3.699,2.449c-1.95,1.487-3.45,3.403-5.005,5.257c-1.711,2.04-2.933,4.327-3.654,6.865
		c-0.221,0.775-0.413,1.561-0.69,2.317c-0.81,2.206-1.162,4.516-1.534,6.804c-0.34,2.087-0.351,4.225-0.501,6.341
		c-0.072,1.008-0.186,2.016-0.185,3.024C506.358,235.476,506.478,237.77,506.44,240.062"/>
	<path clip-path="url(#SVGID_2_)" fill="#8F6E2D" d="M501.88,317.647c0.981,0.927,2.097,1.672,3.313,2.271
		c0.804,0.396,1.59,0.892,2.448,1.107c1.982,0.499,4.004,0.854,6.182,1.303c1.578,0.046,3.314,0.137,5.051,0.135
		c1.521-0.001,3.067,0.13,4.557-0.253c2.417-0.621,4.865-1.179,7.208-2.005c3.093-1.091,5.875-2.767,8.373-4.872
		c1.601-1.349,3.178-2.74,4.883-3.958c2.297-1.64,4.716-3.117,7.062-4.694c0.799-0.536,1.62-1.082,2.279-1.762
		c1.813-1.871,2.114-4.185,1.752-6.61c-0.187-1.248-1.009-2.075-2.271-2.36c-0.943-0.213-1.925-0.402-2.885-0.383
		c-3.029,0.058-6.015,0.528-8.969,1.175c-2.641,0.578-5.278,1.17-7.916,1.767c-3.887,0.881-7.771,1.772-11.657,2.659
		c-0.501,0.115-0.849,0.38-1.093,0.848c-0.61,1.174-1.222,2.351-1.928,3.47c-1.836,2.91-4.248,5.081-7.921,5.531
		c-3.11,0.383-6.226,0.679-9.365,0.624c-1.294-0.021-1.491,0.217-1.412,1.495C499.684,314.964,500.564,316.406,501.88,317.647
		 M512.82,313.781c2.721-0.615,4.863-2.102,6.658-4.123c1.437-1.619,2.706-3.35,3.584-5.315c0.266-0.596,0.798-0.623,1.27-0.736
		c1.451-0.349,2.928-0.596,4.376-0.951c3.235-0.793,6.46-1.62,9.687-2.447c2.59-0.665,5.207-1.187,7.866-1.511
		c0.998-0.121,1.994-0.256,2.995-0.346c0.41-0.037,0.835,0,1.246,0.054c1.263,0.166,1.628,0.543,1.743,1.747
		c0.129,1.336-0.644,2.76-1.967,3.51c-0.224-0.953-0.003-1.958-0.849-2.783c-0.727,1.514-1.362,3.007-2.733,4.14
		c-0.463-1.122-0.251-2.381-1.069-3.442c-0.191,0.262-0.358,0.455-0.486,0.67c-1.007,1.693-1.961,3.418-3.029,5.074
		c-0.505,0.783-1.222,1.438-1.984,2.313c-0.122-1.601,0.387-3.04-0.411-4.453c-0.187,0.211-0.362,0.355-0.468,0.537
		c-0.678,1.179-1.285,2.399-2.02,3.543c-1.046,1.628-2.115,3.249-3.495,4.645c-0.113,0.113-0.246,0.209-0.44,0.278
		c0.541-1.854,1.231-3.664,0.936-5.664c-2.484,2.709-4.804,5.516-7.763,7.981c0.225-1.703,0.972-3.187,0.712-5.016
		c-0.412,0.384-0.69,0.615-0.937,0.877c-1.55,1.641-3.046,3.333-4.659,4.914c-0.765,0.749-1.749,1.288-2.729,1.862
		c0.648-1.822,1.075-3.626,0.664-5.586c-2.298,2.678-5.077,4.576-8.639,5.557c0.185-0.868,0.455-1.629,0.478-2.395
		c0.022-0.787-0.2-1.581-0.329-2.464C511.573,314.107,512.191,313.923,512.82,313.781"/>
	<path clip-path="url(#SVGID_2_)" fill="#002632" d="M704.093,246.644c-0.866-2.534-2.612-4.513-4.581-6.317
		c-0.853-0.782-1.891-1.259-3.012-1.556c-3.345-0.885-6.545-0.294-9.487,1.273c-3.303,1.759-5.813,4.364-7.404,7.72
		c-0.914,1.927-1.128,4.006-1.308,6.083c0.08,0.04,0.16,0.079,0.24,0.119c0.232-0.279,0.503-0.536,0.686-0.842
		c0.346-0.584,0.637-1.198,0.957-1.796c0.963-1.795,1.938-3.59,3.477-4.998c0.833-0.762,1.722-1.471,2.631-2.146
		c1.477-1.095,3.112-1.927,4.908-2.4c1.848-0.487,3.622-0.196,5.166,0.889c1.154,0.81,2.128,1.834,2.938,2.992
		c1.037,1.481,1.55,3.166,1.998,4.864c0.869,3.28,0.852,6.557-0.277,9.783c-1.028,2.939-2.064,5.877-3.182,8.785
		c-1.45,3.773-2.563,7.641-3.381,11.573c-0.543,2.612-1.054,5.225-1.682,7.821c-0.759,3.14-2.366,5.698-5.19,7.411
		c-1.316,0.8-2.8,1.343-4.206,2.004c-0.165,0.077-0.323,0.167-0.711,0.369c0.571,0.194,0.912,0.404,1.258,0.411
		c1.281,0.023,2.571,0.063,3.845-0.055c3.34-0.31,5.614-2.235,7.198-4.92c1.07-1.813,1.665-3.856,2.063-5.911
		c0.572-2.951,0.958-5.936,1.552-8.883c0.413-2.046,0.921-4.091,1.602-6.067c1.09-3.167,2.399-6.262,3.532-9.416
		c0.616-1.717,1.176-3.469,1.553-5.247c0.494-2.33,0.431-4.707-0.023-7.044C704.957,249.625,704.593,248.108,704.093,246.644"/>
	<path clip-path="url(#SVGID_2_)" fill="#002632" d="M686.246,253.97c0.706-1.743,1.865-3.148,3.366-4.301
		c1.882-1.445,4.204-1.033,5.447,0.977c0.393,0.636,0.735,1.303,1.101,1.955c0.263,0.465,0.527,0.929,0.79,1.393
		c0.093-0.011,0.186-0.022,0.277-0.034c0.106-0.274,0.271-0.541,0.306-0.823c0.119-0.936,0.291-1.881,0.261-2.816
		c-0.079-2.328-1.291-3.986-3.406-5.061c-2.033-1.033-3.95-0.606-5.702,0.548c-2.688,1.772-4.611,4.202-5.771,7.138
		c-0.721,1.822-1.314,3.7-1.819,5.589c-0.462,1.726-0.822,3.49-1.053,5.258c-0.223,1.702-0.246,3.43-0.313,5.147
		c-0.075,1.929,0.34,3.704,1.507,5.348c0.894,1.258,1.275,2.74,1.273,4.315c-0.002,1.879-0.72,3.48-1.769,4.993
		c-0.282,0.409-0.531,0.839-0.785,1.24c0.405,0.499,0.82,0.678,1.354,0.58c1.765-0.323,3.436-0.883,4.855-1.985
		c2.679-2.079,3.784-4.956,4.11-8.126c0.244-2.366-0.537-4.529-2.019-6.433c-0.774-0.994-1.588-1.96-2.338-2.972
		c-1.243-1.675-1.891-3.506-1.513-5.612C684.796,258.118,685.417,256.018,686.246,253.97"/>
	<path clip-path="url(#SVGID_2_)" fill="#002632" d="M521.33,274.204c0.406-2.394,0.824-4.787,1.275-7.174
		c0.341-1.794,0.656-3.587,0.607-5.418c-0.034-1.278-0.125-2.554-0.144-3.832c-0.032-2.122-0.021-4.244-0.051-6.366
		c-0.003-0.232-0.161-0.461-0.339-0.929c-0.303,0.581-0.512,0.922-0.665,1.285c-0.786,1.861-1.041,3.823-1.239,5.811
		c-0.249,2.484-0.615,4.958-0.947,7.435c-0.062,0.466-0.202,0.922-0.305,1.383c-0.34,1.516-0.729,3.022-1,4.549
		c-0.235,1.322-0.291,2.673-0.506,3.999c-0.412,2.562-0.939,5.106-0.855,7.725c0.07,2.183-0.035,4.375,0.109,6.552
		c0.141,2.14,0.488,4.267,0.766,6.397c0.138,1.061,0.321,2.117,0.482,3.175c0.077,0.012,0.153,0.024,0.229,0.037
		c0.075-0.108,0.191-0.207,0.216-0.324c0.166-0.788,0.373-1.574,0.452-2.372c0.167-1.674,0.258-3.355,0.393-5.033
		c0.062-0.774,0.239-1.547,0.22-2.317c-0.076-2.906,0.11-5.802,0.385-8.687C520.602,278.124,520.997,276.165,521.33,274.204"/>
	<path clip-path="url(#SVGID_2_)" fill="#8F6E2D" d="M622.107,302.643c-0.473,0.211-0.926,0.469-1.407,0.66
		c-2.6,1.036-5.332,1.294-8.09,1.042c-1.269-0.116-1.682-0.052-1.244,1.52c0.117,0.422,0.214,0.863,0.417,1.248
		c1.055,2.004,2.358,3.812,4.321,5.106c1.43,0.945,2.174,0.939,3.39-0.239c2.038-1.975,3.151-4.408,3.717-7.272
		c-0.016-0.429,0.021-1.008-0.073-1.565C623.022,302.464,622.746,302.356,622.107,302.643"/>
	<path clip-path="url(#SVGID_2_)" fill="#8F6E2D" d="M514.293,300.541c-1.464-0.518-2.898-1.113-4.331-1.71
		c-0.769-0.321-1.085-0.224-1.232,0.761c0.053,0.49,0.084,1.267,0.229,2.023c0.427,2.211,1.348,4.176,3.205,5.622
		c0.996,0.776,1.555,0.774,2.444-0.096c1.36-1.33,2.369-2.899,3.096-4.629c0.358-0.85,0.215-1.056-0.692-1.277
		C516.102,301.016,515.17,300.851,514.293,300.541"/>
	<path clip-path="url(#SVGID_2_)" fill="#002632" d="M548.529,316.482c0.428,0.471,0.706,0.864,1.069,1.157
		c0.791,0.639,1.499,1.402,2.63,1.535c0.961,0.114,1.929,0.265,2.86,0.513c1.802,0.478,3.579,1.049,5.373,1.557
		c0.562,0.159,1.141,0.272,1.72,0.346c0.711,0.092,1.215-0.251,1.483-0.871c0.243-0.56-0.084-0.956-0.495-1.31
		c-1.888-1.625-4.01-2.872-6.388-3.7c-0.227-0.079-0.474-0.135-0.712-0.138c-2.117-0.024-4.233-0.005-6.317,0.413
		C549.371,316.062,549.018,316.278,548.529,316.482"/>
	<path clip-path="url(#SVGID_2_)" fill="#002632" d="M625.735,239.867c-0.159-0.064-0.312-0.11-0.452-0.182
		c-1.006-0.52-1.995-1.073-3.017-1.562c-0.998-0.478-2.068-0.77-3.152-0.997c-1.256-0.264-2.515-0.521-3.78-0.732
		c-0.867-0.145-1.749-0.207-2.624-0.305c-1.561-0.174-3.12-0.347-4.681-0.52c-0.936-0.103-1.871-0.209-2.808-0.306
		c-1.01-0.105-2.021-0.218-3.033-0.298c-1.398-0.11-2.795-0.243-4.206-0.212c-1.238,0.027-2.479-0.039-3.72-0.039
		c-1.33,0-2.661,0.023-3.991,0.047c-1.375,0.024-2.751,0.051-4.126,0.098c-1.21,0.04-2.42,0.095-3.629,0.168
		c-1.268,0.077-2.535,0.195-3.804,0.269c-1.061,0.062-2.125,0.157-3.182,0.111c-1.755-0.076-3.437-0.456-4.877-1.545
		c-0.824-0.624-1.57-1.313-2.09-2.232c-0.771-1.364-1.305-2.816-1.634-4.348c-0.025-0.114-0.019-0.234-0.029-0.374
		c0.113-0.036,0.207-0.074,0.306-0.097c1.021-0.235,2.035-0.521,3.067-0.686c1.106-0.177,2.23-0.236,3.347-0.353
		c0.356-0.038,0.712-0.1,1.067-0.142c1.817-0.212,3.638-0.273,5.463-0.252c1.239,0.014,2.481-0.074,3.722-0.082
		c1.105-0.008,2.213,0.011,3.316,0.057c1.181,0.05,2.357,0.142,3.535,0.22c1.163,0.077,2.326,0.147,3.487,0.244
		c1.221,0.101,2.439,0.234,3.66,0.346c1.771,0.161,3.545,0.303,5.314,0.478c1.159,0.114,2.314,0.275,3.472,0.407
		c1.382,0.157,2.766,0.291,4.145,0.461c0.947,0.117,1.89,0.269,2.832,0.421c0.898,0.145,1.797,0.307,2.635,0.667
		c0.587,0.252,1.152,0.558,1.714,0.861c1.187,0.64,2.276,1.408,3.204,2.397c0.642,0.685,1.351,1.309,1.959,2.021
		c1.153,1.349,2.048,2.861,2.559,4.582C625.837,238.904,625.929,239.358,625.735,239.867"/>
	<path clip-path="url(#SVGID_2_)" fill="#002632" d="M615.69,242.86c0.072,0.304,0.11,0.604,0.046,0.935
		c-0.205,1.051-0.747,1.862-1.421,2.571c-0.388,0.407-0.793,0.794-1.219,1.147c-0.773,0.644-1.653,1.038-2.562,1.356
		c-1.352,0.473-2.729,0.807-4.129,0.966c-0.981,0.111-1.97,0.128-2.956,0.176c-0.671,0.033-1.342,0.054-2.013,0.07
		c-0.688,0.016-1.375,0.014-2.062,0.028c-0.852,0.018-1.703,0.047-2.554,0.066c-1.673,0.036-3.345,0.06-5.018,0.106
		c-1.001,0.027-2.002,0.108-3.003,0.121c-0.82,0.01-1.642-0.054-2.464-0.07c-1.435-0.028-2.868,0.013-4.303,0.143
		c-0.818,0.074-1.642,0.05-2.463,0.054c-0.151,0-0.302-0.079-0.502-0.136c0.316-0.522,0.723-0.822,1.103-1.141
		c1.335-1.124,2.838-1.784,4.46-2.083c1.139-0.211,2.276-0.425,3.42-0.587c1.573-0.221,3.149-0.435,4.729-0.576
		c1.206-0.107,2.418-0.122,3.628-0.132c1.389-0.012,2.778,0.016,4.167,0.045c1.522,0.031,3.045,0.105,4.567,0.117
		c0.941,0.007,1.884-0.091,2.825-0.097c1.282-0.008,2.536-0.275,3.765-0.653c1.066-0.328,2.132-0.727,3.009-1.568
		c0.207-0.198,0.401-0.413,0.59-0.633c0.082-0.095,0.135-0.224,0.201-0.337C615.584,242.786,615.637,242.824,615.69,242.86"/>
	<path clip-path="url(#SVGID_2_)" fill="#002632" d="M640.551,248.985c-0.158-0.086-0.295-0.177-0.445-0.239
		c-0.894-0.367-1.789-0.736-2.689-1.088c-0.837-0.327-1.682-0.635-2.524-0.946c-0.21-0.077-0.43-0.13-0.643-0.201
		c-1.056-0.349-2.119-0.664-3.22-0.857c-0.955-0.167-1.909-0.343-2.865-0.514c-0.919-0.164-1.852-0.087-2.777-0.129
		c-0.331-0.014-0.662-0.021-1.025-0.032c0.03-0.128,0.034-0.21,0.069-0.276c0.182-0.348,0.435-0.646,0.77-0.86
		c0.708-0.453,1.453-0.839,2.247-1.135c0.855-0.318,1.731-0.596,2.555-0.98c0.732-0.341,1.418-0.785,2.099-1.22
		c0.494-0.314,0.946-0.688,1.42-1.031c0.062-0.045,0.146-0.062,0.247-0.103c0.017,1.633-0.518,2.996-1.87,4.072
		c0.215,0.089,0.358,0.161,0.511,0.209c0.991,0.314,1.959,0.682,2.907,1.109c1.403,0.631,2.67,1.469,3.911,2.343
		c0.521,0.367,1.014,0.79,1.302,1.38C640.603,248.637,640.671,248.779,640.551,248.985"/>
	<path clip-path="url(#SVGID_2_)" fill="#002632" d="M582.005,252.833c0.51,0.088,1.022,0.159,1.529,0.267
		c1.376,0.293,2.743,0.653,4.127,0.886c0.954,0.161,1.93,0.211,2.899,0.21c1.416-0.002,2.839-0.001,4.25-0.172
		c1.593-0.194,3.175-0.584,4.763-0.874c1.338-0.245,2.657-0.602,3.964-1.05c0.942-0.323,1.892-0.604,2.838-0.902
		c0.054-0.017,0.109-0.027,0.269-0.065c-0.118,0.196-0.165,0.332-0.248,0.403c-0.573,0.485-1.128,1.016-1.737,1.42
		c-1.534,1.019-3.136,1.844-4.797,2.479c-0.704,0.27-1.404,0.57-2.118,0.787c-1.066,0.324-2.146,0.571-3.243,0.581
		c-1.136,0.011-2.273,0.07-3.407,0.034c-1.21-0.039-2.402-0.22-3.568-0.62c-1.795-0.616-3.466-1.542-5.05-2.704
		c-0.149-0.111-0.284-0.254-0.421-0.391c-0.041-0.041-0.062-0.112-0.091-0.169C581.978,252.913,581.991,252.873,582.005,252.833"/>
	<path clip-path="url(#SVGID_2_)" fill="#002632" d="M609.384,242.362c-0.605-0.076-1.214-0.131-1.816-0.232
		c-1.64-0.272-3.271-0.627-4.916-0.827c-1.134-0.137-2.287-0.138-3.428-0.077c-1.667,0.089-3.345,0.175-4.995,0.471
		c-1.865,0.334-3.704,0.907-5.558,1.359c-1.561,0.38-3.093,0.897-4.604,1.524c-1.09,0.452-2.192,0.853-3.289,1.276
		c-0.062,0.024-0.126,0.039-0.312,0.095c0.127-0.247,0.175-0.416,0.268-0.507c0.646-0.627,1.267-1.309,1.959-1.839
		c1.745-1.337,3.581-2.443,5.499-3.319c0.812-0.372,1.619-0.782,2.447-1.091c1.235-0.46,2.49-0.828,3.784-0.908
		c1.337-0.082,2.673-0.225,4.012-0.25c1.427-0.027,2.844,0.121,4.241,0.537c2.151,0.641,4.177,1.668,6.112,2.988
		c0.185,0.126,0.353,0.292,0.521,0.45c0.051,0.048,0.08,0.133,0.118,0.202L609.384,242.362z"/>
	<path clip-path="url(#SVGID_2_)" fill="#002632" d="M623.46,246.602c0.134-0.195,0.293-0.148,0.44-0.12
		c0.496,0.098,0.99,0.203,1.486,0.301c0.759,0.149,1.539,0.232,2.273,0.457c0.949,0.29,1.89,0.637,2.783,1.062
		c1.212,0.576,2.393,1.218,3.553,1.888c0.953,0.551,1.869,1.164,2.772,1.788c0.397,0.274,0.734,0.634,1.078,0.974
		c0.483,0.478,0.947,0.976,1.42,1.463c0.577,0.593,0.974,1.307,1.406,1.994c0.169,0.27,0.269,0.583,0.285,0.905
		c-0.071,0.017-0.107,0.036-0.122,0.027c-0.382-0.252-0.771-0.496-1.141-0.762c-0.554-0.398-1.09-0.817-1.64-1.219
		c-0.673-0.493-1.338-1-2.034-1.463c-0.836-0.555-1.694-1.076-2.616-1.498c-0.418-0.192-0.814-0.441-1.188-0.706
		c-0.55-0.392-1.174-0.644-1.77-0.95c-0.634-0.326-1.279-0.63-1.898-0.978c-0.631-0.355-1.232-0.759-1.853-1.131
		c-0.694-0.416-1.402-0.809-2.092-1.233C624.216,247.161,623.854,246.878,623.46,246.602"/>
	<path clip-path="url(#SVGID_2_)" fill="#002632" d="M570.197,244.391c0.107,0.211,0.175,0.317,0.218,0.431
		c0.811,2.105,1.767,4.156,2.817,6.169c0.886,1.695,1.879,3.34,3.146,4.831c0.473,0.557,0.979,1.092,1.507,1.607
		c0.502,0.491,1.146,0.788,1.846,0.983c1.006,0.28,2.015,0.554,3.019,0.841c0.188,0.053,0.361,0.154,0.59,0.253
		c-0.278,0.295-0.589,0.419-0.899,0.487c-1.622,0.358-3.25,0.59-4.93,0.258c-1.067-0.211-1.887-0.71-2.558-1.487
		c-0.831-0.963-1.571-1.975-2.095-3.105c-0.355-0.767-0.71-1.539-0.981-2.332c-0.535-1.56-1.054-3.126-1.496-4.708
		c-0.245-0.88-0.455-1.78-0.468-2.701C569.904,245.432,569.97,244.962,570.197,244.391"/>
	<path clip-path="url(#SVGID_2_)" fill="#002632" d="M625.779,285.518c-1.963,2.851-2.831,5.971-2.586,9.499
		c-0.354-0.158-0.604-0.234-0.816-0.37c-1.039-0.669-1.676-1.637-2.052-2.763c-0.223-0.671-0.36-1.369-0.547-2.102
		c-0.543-0.131-1.144-0.249-1.726-0.425c-1.306-0.394-2.488-0.992-3.371-2.047c-0.185-0.219-0.348-0.446-0.287-0.818
		c1.908,0.399,3.831,0.537,5.77,0.369C622.094,286.694,623.928,286.158,625.779,285.518"/>
	<path clip-path="url(#SVGID_2_)" fill="#002632" d="M630.18,253.628c-0.481,0.095-0.862,0.123-1.279,0.023
		c-0.888-0.214-1.622-0.69-2.324-1.211c-0.613-0.453-1.168-0.981-1.757-1.466c-0.429-0.353-0.859-0.705-1.31-1.03
		c-0.769-0.552-1.554-1.082-2.35-1.635c0.164-0.144,0.373-0.127,0.569-0.094c0.512,0.085,1.021,0.188,1.532,0.286
		c0.984,0.189,1.854,0.621,2.654,1.194c0.667,0.478,1.306,0.985,1.914,1.537c0.659,0.597,1.312,1.196,1.913,1.848
		C629.883,253.231,629.999,253.401,630.18,253.628"/>
	<path clip-path="url(#SVGID_2_)" fill="#002632" d="M587.708,276.005c-5.524-5.363-9.137-2.417-9.137-2.417
		c0.05,0.048,0.079,0.089,0.119,0.112c0.635,0.355,1.123,0.878,1.64,1.365c0.458,0.432,0.755,0.972,0.866,1.572
		c0.278,1.515,0.078,2.96-0.783,4.288c-0.368,0.567-0.824,1.056-1.315,1.523c-0.176,0.167-0.333,0.215-0.57,0.172
		c-1.06-0.192-2.12-0.371-3.183-0.545c-0.837-0.136-1.675-0.269-2.516-0.384c-1.103-0.152-2.205-0.33-3.314-0.414
		c-1.008-0.076-2.024-0.059-3.033,0.078c-0.722,0.098-1.416,0.266-2.025,0.675c-0.758,0.509-1.397,1.129-1.902,1.882
		c-0.374,0.558-0.65,1.139-0.593,1.827c0.033,0.39,0.145,0.742,0.438,1.032c0.439,0.435,0.934,0.799,1.508,1.042
		c0.52,0.22,1.059,0.401,1.597,0.58c1.076,0.359,2.167,0.379,3.248,0.039c0.93-0.292,1.728-0.822,2.439-1.459
		c0.512-0.457,0.981-0.96,1.457-1.455c0.148-0.155,0.289-0.202,0.5-0.145c0.353,0.094,0.711,0.171,1.069,0.245
		c0.903,0.187,1.808,0.371,2.712,0.553c0.847,0.169,1.7,0.271,2.565,0.184c0.451-0.045,0.901-0.084,1.339-0.241
		c0.961-0.346,1.681-0.994,2.354-1.702c0.586-0.617,1.05-1.322,1.422-2.139c0.112,0.08,0.184,0.126,0.251,0.179
		c0.875,0.688,1.729,1.401,2.629,2.058c0.907,0.663,1.845,1.289,2.792,1.899c1.054,0.679,2.133,1.323,3.204,1.978
		c0.461,0.281,0.917,0.575,1.397,0.82c1.367,0.696,2.755,1.353,4.194,1.903c0.94,0.359,1.88,0.716,2.869,0.942
		c0.911,0.209,1.804,0.504,2.723,0.665c1.006,0.178,2.03,0.296,3.052,0.35c1.439,0.076,2.855-0.147,4.247-0.498
		c0.494-0.124,0.956-0.329,1.379-0.606c0.137-0.09,0.3-0.168,0.341-0.389C601.6,294.96,593.232,281.369,587.708,276.005"/>
	<path clip-path="url(#SVGID_2_)" fill="#002632" d="M641.33,270.708c-0.018-0.089-0.085-0.172-0.141-0.25
		c-0.281-0.394-0.553-0.795-0.851-1.176c-0.656-0.839-1.299-1.689-2.156-2.361c-0.472-0.368-0.886-0.804-1.345-1.188
		c-0.683-0.57-1.365-1.142-2.08-1.673c-0.66-0.491-1.354-0.938-2.046-1.385c-0.727-0.468-1.455-0.936-2.208-1.361
		c-0.803-0.454-1.63-0.866-2.455-1.28c-1.023-0.514-2.07-0.989-3.082-1.525c-1.049-0.556-2.183-0.883-3.302-1.255
		c-0.238-0.08-0.492-0.12-0.74-0.173c-0.592-0.126-1.183-0.255-1.776-0.37c-0.967-0.186-1.931-0.401-2.905-0.531
		c-1.017-0.137-2.045-0.2-3.069-0.272c-0.517-0.036-1.037-0.027-1.555-0.024c-0.676,0.004-1.353,0.013-2.029,0.041
		c-0.308,0.012-0.612,0.08-0.92,0.114c-0.725,0.081-1.453,0.143-2.176,0.236c-1.285,0.163-2.567,0.347-3.851,0.514
		c-0.741,0.097-1.485,0.169-2.226,0.269c-0.824,0.111-1.641,0.272-2.467,0.355c-0.975,0.097-1.911,0.342-2.842,0.611
		c-0.471,0.135-0.919,0.346-1.378,0.522c-0.105,0.041-0.222,0.072-0.172,0.301c0,0,29.73-4.356,47.716,12.111
		C641.326,270.898,641.346,270.788,641.33,270.708"/>
	<path clip-path="url(#SVGID_2_)" fill="#002632" d="M641.275,270.958c0,0-0.074,0.008-0.199,0.02
		C641.143,270.998,641.246,270.994,641.275,270.958"/>
	<path clip-path="url(#SVGID_2_)" fill="#002632" d="M564.475,291.55c-2.465,0.607-4.967,0.804-7.53,0.773
		c-2.899-0.036-5.468-0.736-7.817-2.352c-1.735-1.194-2.809-2.73-3.096-4.815c-0.208-1.509,0.029-2.966,0.303-4.423
		c0.154-0.822,0.421-1.638,0.742-2.415c0.687-1.66,1.516-3.266,2.151-4.943c1.448-3.826,2.834-7.675,4.207-11.527
		c1.33-3.728,2.597-7.477,3.474-11.336c1.138-5.008,1.781-10.056,1.121-15.183c-0.168-1.301-0.505-2.585-0.832-3.861
		c-0.124-0.483-0.305-1.028-0.973-1.234c-0.21,0.422-0.362,0.799-0.577,1.14c-0.27,0.429-0.58,0.835-0.891,1.237
		c-0.544,0.705-1.184,0.717-2.029,0.448c-1.514-0.481-3.061-0.943-4.63-1.158c-3.193-0.435-6.396-0.081-9.565,0.34
		c-3.479,0.462-6.945,1.043-10.4,1.659c-3.858,0.688-7.727,1.354-11.499,2.432c-0.58,0.167-1.133,0.43-1.718,0.655
		c0.632,1.647,1.226,3.187,1.828,4.757c-0.662,0.322-1.268,0.617-1.898,0.925c0.101,0.234,0.131,0.37,0.209,0.472
		c1.012,1.331,2.05,2.638,3.372,3.705c1.969,1.587,4.17,2.205,6.696,1.617c0.497-0.116,1.021-0.129,1.618-0.199
		c-0.1,0.51-0.215,0.964-0.271,1.425c-0.062,0.501-0.09,1.014,0.372,1.407c0.106-0.017,0.227-0.004,0.304-0.054
		c0.315-0.207,0.643-0.409,0.924-0.657c2.217-1.957,4.926-3.032,7.705-3.902c2.285-0.715,4.689-0.87,7.091-1.015
		c2.391-0.143,4.659,0.204,6.878,0.884c0.354,0.108,2.442,1.123,2.777,1.287c0,0,0.243,1.512,0.144,3.624
		c0,0,0.188,2.839-1.005,5.31c-0.857,0.367-2.996,1.888-3.701,2.142c-1.988,0.717-4.066,1.052-6.147,1.177
		c-1.279,0.077-2.561,0.171-3.826,0.347c-0.924,0.129-1.834,0.376-2.736,0.622c-0.514,0.14-1.107,0.149-1.536,0.669
		c0.201,0.164,0.355,0.374,0.56,0.442c1.753,0.588,3.56,1.03,5.41,0.716c1.021-0.173,1.988-0.124,2.983,0.004
		c0.483,0.062,0.971,0.127,1.456,0.12c1.281-0.018,2.573,0.048,3.809-0.422c0.434-0.165,0.905-0.24,1.603-0.419
		c-0.321,0.32-0.446,0.471-0.596,0.59c-1.885,1.499-4.111,2.39-6.324,3.287c-2.057,0.834-4.067,1.741-5.943,2.921
		c-1.75,1.102-3.292,2.382-4.186,4.266c-0.077,0.16-0.11,0.34-0.235,0.737c2.551-1.318,4.933-2.475,7.449-3.327
		c2.555-0.864,5.185-1.464,7.917-2.114c-0.042,0.318-0.023,0.529-0.099,0.699c-0.854,1.919-1.642,3.871-2.606,5.736
		c-1.072,2.074-1.961,4.177-2.097,6.519c-0.023,0.402-0.185,0.682-0.483,0.956c-1.857,1.706-3.195,3.808-4.69,5.794
		c-1.393,1.847-2.873,3.635-4.382,5.395c-0.657,0.768-1.578,1.201-2.646,1.27c-0.223,0.015-0.441,0.114-0.661,0.175
		c1.151,0.539,2.298,0.793,3.498,0.327c1.34-0.521,2.502-1.317,3.6-2.21c1.481-1.204,2.617-2.694,3.751-4.193
		c0.646-0.854,1.285-1.729,2.194-2.477c0.201,0.406,0.342,0.745,0.531,1.058c0.543,0.9,1.017,1.858,1.677,2.671
		c2.415,2.978,5.776,4.326,9.495,4.998c2.378,0.429,4.725,0.143,7.02-0.464c1.854-0.491,3.595-1.277,5.145-2.412
		c0.677-0.494,1.18-1.104,1.442-1.874C567.01,290.728,565.767,291.232,564.475,291.55"/>
	<path clip-path="url(#SVGID_2_)" fill="#002632" d="M553.85,252.375c-0.663-0.728-1.591-1.153-2.555-1.51
		c-1.736-0.642-3.569-1.159-5.419-1.648c-0.942-0.249-1.986-0.36-3.027-0.467c-1.534-0.158-3.293,0.095-5.148,0.52
		c-1.495,0.343-3.011,1.127-4.675,2.504c-1.549,1.282-2.932,2.699-4.229,4.189l-0.392,0.989l5.304-2.052
		c0.256-0.117,0.51-0.216,0.76-0.294c1.109-0.347,2.204-0.649,3.265-0.883c2.843-0.627,5.406-0.734,7.85-0.644
		c2.9,0.107,5.695,0.384,8.318,0.915c0.143,0.029,0.312,0.018,0.612,0.033C554.435,253.235,554.2,252.76,553.85,252.375"/>
	<path clip-path="url(#SVGID_2_)" fill="#8F6E2D" d="M218.303,256.657l7.201-7.092c0.763-0.763,1.745-0.872,2.509,0
		c0.655,0.764,2.182,2.073,4.691,2.073c2.728,0,5.674-3.055,6.546-9.055l6.983-50.623c0.109-1.091,0.982-2.073,2.073-2.073h13.637
		c1.091,0,1.855,0.982,1.746,2.073l-7.31,51.496c-2.291,16.256-10.255,23.892-23.784,23.892c-9.164,0-13.419-5.782-14.728-7.964
		C217.321,258.511,217.648,257.42,218.303,256.657"/>
	<path clip-path="url(#SVGID_2_)" fill="#8F6E2D" d="M292.473,221.526c7.419,0,14.401,4.363,14.401,11.455
		c0,9.492-9.71,14.729-25.638,14.729c-0.109,2.945,0.982,6.436,5.782,6.436c2.073,0,4.692-1.309,6.328-2.618
		c0.655-0.545,1.855-0.655,2.728,0.437l4.582,6c0.654,0.764,0.436,2.182-0.218,2.946c-4.255,4.364-9.601,6.436-15.602,6.436
		c-11.237,0-17.892-9.055-17.892-19.092C266.943,233.527,277.745,221.526,292.473,221.526 M293.346,235.055
		c0-1.418-1.2-2.182-2.618-2.182c-3.164,0-7.092,2.837-8.183,6.546C282.544,239.418,293.346,239.091,293.346,235.055"/>
	<path clip-path="url(#SVGID_2_)" fill="#8F6E2D" d="M354.569,264.185c-0.218,1.091-1.2,2.073-2.182,2.073h-5.673
		c-0.873,0-1.527-0.655-1.637-1.637l-0.654-3.818c-2.182,2.4-7.746,6.546-14.729,6.546c-10.146,0-15.383-9.056-15.383-20.184
		c0-14.401,10.365-25.638,22.256-25.638c8.838,0,12.983,6.873,12.983,6.873l2.183-4.473c0.436-0.873,1.091-1.309,2.073-1.309h5.127
		c0.982,0,1.746,0.872,1.528,2.072L354.569,264.185z M343.441,243.456c0-4.255-2.619-7.637-6.11-7.637
		c-4.036,0-8.291,4.364-8.291,9.928c0,4.146,2.4,7.419,5.782,7.419C339.731,253.166,343.441,249.02,343.441,243.456"/>
	<path clip-path="url(#SVGID_2_)" fill="#8F6E2D" d="M371.752,224.69c0.219-1.2,1.2-2.073,2.183-2.073h5.236
		c0.546,0,1.31,0.546,1.527,1.309l1.2,4.365c2.837-2.946,7.747-6.765,14.729-6.765c11.347,0,18.002,10.474,16.256,22.911
		l-2.728,19.748c-0.217,1.09-1.199,2.072-2.181,2.072h-12.111c-1.09,0-1.745-0.982-1.527-2.072l2.837-20.62
		c0.654-4.364-0.873-7.747-5.128-7.747c-3.164,0-6.655,2.728-7.31,7.201l-2.945,21.166c-0.219,1.527-1.746,2.072-2.946,2.072
		h-11.019c-0.982,0-1.746-0.982-1.527-2.072L371.752,224.69z"/>
	<path clip-path="url(#SVGID_2_)" fill="#8F6E2D" d="M177.682,283.375c0.109-1.091,1.091-2.073,2.182-2.073h24.002
		c10.91,0,18.874,10.037,18.874,21.602c0,14.512-11.455,27.058-25.638,27.058h-8.946l-3.601,25.638
		c-0.109,1.092-1.2,2.074-2.182,2.074h-13.31c-1.091,0-1.636-0.982-1.527-2.074L177.682,283.375z M198.301,314.031
		c3.818,0,7.528-4.362,7.528-9.928c0-3.819-2.182-6.764-5.128-6.764h-7.964l-2.291,16.691H198.301z"/>
	<path clip-path="url(#SVGID_2_)" fill="#8F6E2D" d="M238.978,283.374c0.109-1.091,1.091-2.073,2.073-2.073h13.637
		c0.982,0,1.637,0.982,1.528,2.073L246.069,355.6c-0.11,1.091-1.092,2.072-2.073,2.072h-13.638c-0.982,0-1.636-0.981-1.527-2.072
		L238.978,283.374z"/>
	<path clip-path="url(#SVGID_2_)" fill="#8F6E2D" d="M271.49,282.174c0.109-1.091,1.2-1.964,2.182-1.964h2.4l32.512,42.113h0.109
		l5.237-38.949c0.109-1.091,0.982-2.073,2.073-2.073h13.31c0.982,0,1.855,0.873,1.746,1.855l-10.256,73.643
		c-0.109,1.091-1.091,1.964-2.073,1.964h-2.727l-32.512-43.422h-0.109l-4.91,40.258c-0.218,1.093-1.091,2.073-2.182,2.073h-13.419
		c-0.873,0-1.746-0.873-1.636-1.854L271.49,282.174z"/>
	<path clip-path="url(#SVGID_2_)" fill="#8F6E2D" d="M380.772,280.21c9.71,0,17.129,3.382,22.911,10.146
		c0.654,0.874,0.545,2.183-0.436,3.055l-9.383,8.292c-0.873,0.765-1.855,0.654-2.509,0c-2.728-3.055-7.419-5.019-11.783-5.019
		c-11.238,0-20.839,12.002-20.839,25.858c0,10.255,5.783,18.766,14.729,18.766c3.709,0,8.837-2.51,12.656-5.674
		c0.763-0.653,2.073-0.546,2.618,0.109l7.419,9.819c0.655,0.873,0.219,2.182-0.545,2.945c-7.746,7.2-15.929,10.256-24.657,10.256
		c-16.474,0-31.094-15.165-31.094-34.366C339.859,299.521,357.206,280.21,380.772,280.21"/>
	<path clip-path="url(#SVGID_2_)" fill="#8F6E2D" d="M418.377,283.374c0.108-1.091,1.091-2.073,2.072-2.073h41.131
		c1.091,0,1.746,0.982,1.637,2.073l-1.745,11.892c-0.11,1.091-0.983,2.073-2.074,2.073h-25.965l-1.964,13.528h21.165
		c0.981,0,1.746,0.983,1.637,2.073l-1.746,11.893c-0.218,1.2-1.2,2.072-2.182,2.072h-21.056l-2.073,14.729h25.966
		c1.091,0,1.636,0.982,1.527,2.073l-1.638,11.893c-0.108,1.091-1.09,2.072-2.181,2.072h-41.131c-1.091,0-1.746-0.981-1.527-2.072
		L418.377,283.374z"/>
	<path clip-path="url(#SVGID_2_)" fill="#002632" d="M260.117,412.691c3.191,0,5.793,2.416,5.793,5.762
		c0,0.218-0.03,0.62-0.062,0.837c-0.031,0.31-0.31,0.526-0.589,0.526h-7.93c0.093,1.271,1.177,2.695,2.974,2.695
		c0.96,0,1.859-0.371,2.416-0.774c0.31-0.185,0.589-0.248,0.806,0l1.27,1.456c0.217,0.217,0.279,0.557-0.031,0.806
		c-1.022,0.961-2.602,1.704-4.616,1.704c-3.717,0-6.351-2.942-6.351-6.506C253.797,415.697,256.431,412.691,260.117,412.691
		 M262.286,417.648c-0.093-1.146-1.085-2.107-2.262-2.107c-1.239,0-2.261,0.93-2.416,2.107H262.286z"/>
	<path clip-path="url(#SVGID_2_)" fill="#002632" d="M268.664,423.906l0.836-1.673c0.125-0.311,0.434-0.371,0.713-0.217
		c0,0,1.394,0.744,2.819,0.744c0.62,0,1.054-0.248,1.054-0.775c0-0.557-0.434-0.898-2.076-1.549c-2.385-0.93-3.501-2.2-3.501-4.089
		c0-1.89,1.395-3.656,4.554-3.656c1.828,0,3.16,0.527,3.811,0.961c0.279,0.185,0.434,0.526,0.279,0.836l-0.775,1.58
		c-0.155,0.279-0.496,0.31-0.743,0.217c0,0-1.394-0.65-2.572-0.65c-0.743,0-1.053,0.31-1.053,0.713c0,0.558,0.558,0.742,1.704,1.208
		c2.385,0.93,4.182,1.951,4.182,4.367c0,2.046-1.797,3.78-4.926,3.78c-2.044,0-3.47-0.65-4.12-1.146
		C268.664,424.401,268.54,424.154,268.664,423.906"/>
	<path clip-path="url(#SVGID_2_)" fill="#002632" d="M282.106,416.254h-1.053c-0.31,0-0.558-0.278-0.558-0.588v-2.076
		c0-0.341,0.248-0.589,0.558-0.589h1.053v-3.438c0-0.31,0.279-0.589,0.589-0.589l2.54-0.03c0.31,0,0.557,0.278,0.557,0.589v3.469
		h2.727c0.34,0,0.588,0.248,0.588,0.589v2.076c0,0.31-0.248,0.588-0.588,0.588h-2.727v4.957c0,0.868,0.465,0.991,0.961,0.991
		c0.527,0,1.177-0.217,1.518-0.34c0.34-0.124,0.588,0.029,0.682,0.34l0.619,1.952c0.124,0.31-0.031,0.62-0.341,0.743
		c-0.155,0.094-2.168,0.806-3.686,0.806c-2.386,0-3.439-1.487-3.439-3.996V416.254z"/>
	<path clip-path="url(#SVGID_2_)" fill="#002632" d="M294.203,424.836v-2.076c0-0.341,0.248-0.588,0.589-0.588h6.908
		c0.341,0,0.589,0.247,0.589,0.588v2.076c0,0.31-0.248,0.558-0.589,0.558h-6.908C294.451,425.394,294.203,425.146,294.203,424.836"
		/>
	<path clip-path="url(#SVGID_2_)" fill="#002632" d="M297.739,408.943h-2.749c-0.493,0-0.893,0.405-0.893,0.903v7.679
		c0,0.498,0.4,0.903,0.893,0.903h2.749c2.622,0,4.755-2.133,4.755-4.755C302.494,411.065,300.361,408.943,297.739,408.943
		 M299.525,413.674c0,1.143-0.81,1.972-1.925,1.972h-0.639v-3.933h0.639C298.715,411.713,299.525,412.538,299.525,413.674"/>
	<path clip-path="url(#SVGID_2_)" fill="#002632" d="M312.96,424.092c2.044-2.478,5.948-7.558,8.023-10.315
		c0.961-1.178,1.581-2.386,1.581-3.439c0-1.394-1.054-2.819-3.285-2.819c-1.486,0-2.757,1.055-3.469,1.829
		c-0.248,0.247-0.589,0.247-0.837,0l-1.487-1.488c-0.185-0.185-0.248-0.558-0.031-0.806c0,0,2.417-3.035,6.103-3.035
		c4.43,0,6.909,2.819,6.909,6.165c0,2.014-0.868,3.283-2.076,5.019c-1.332,1.89-3.686,4.802-5.328,6.878h6.691
		c0.31,0,0.589,0.278,0.589,0.588v2.137c0,0.311-0.279,0.59-0.589,0.59h-12.206c-0.34,0-0.588-0.279-0.588-0.59V424.092z"/>
	<path clip-path="url(#SVGID_2_)" fill="#002632" d="M330.769,414.86c0-6.783,2.85-10.843,7.807-10.843
		c4.956,0,7.807,4.06,7.807,10.843c0,6.784-2.851,10.844-7.807,10.844C333.618,425.704,330.769,421.645,330.769,414.86
		 M342.323,414.86c0-4.585-1.363-7.187-3.748-7.187c-2.386,0-3.749,2.602-3.749,7.187c0,4.615,1.363,7.188,3.749,7.188
		C340.96,422.048,342.323,419.476,342.323,414.86"/>
	<path clip-path="url(#SVGID_2_)" fill="#002632" d="M353.471,409.966l-2.726,0.588c-0.279,0.062-0.589-0.124-0.62-0.401
		l-0.185-1.52c-0.031-0.247,0.03-0.433,0.154-0.557l4.461-3.748h2.169c0.31,0,0.557,0.278,0.557,0.588v19.888
		c0,0.311-0.247,0.59-0.557,0.59h-2.664c-0.341,0-0.589-0.279-0.589-0.59V409.966z"/>
	<path clip-path="url(#SVGID_2_)" fill="#002632" d="M372.645,403.646c0.433-0.124,0.743,0.032,0.867,0.434l0.712,1.827
		c0.155,0.373,0.031,0.714-0.557,0.899c-1.456,0.465-5.856,2.541-6.816,5.948c0.527-0.31,2.076-0.867,3.532-0.867
		c3.098,0,6.32,2.292,6.32,6.723c0,3.902-3.191,7.094-7.002,7.094c-4.864,0-7.373-3.903-7.373-8.55
		C362.328,408.106,369.98,404.514,372.645,403.646 M373.202,418.547c0-1.983-1.58-3.624-3.563-3.624
		c-2.044,0-3.252,1.58-3.593,2.694c0,2.107,1.115,4.555,3.625,4.555C371.622,422.172,373.202,420.498,373.202,418.547"/>
	<path clip-path="url(#SVGID_2_)" fill="#002632" d="M220.647,393.157l0.839-1.679c0.124-0.31,0.435-0.373,0.715-0.217
		c0,0,1.398,0.745,2.827,0.745c0.621,0,1.056-0.248,1.056-0.777c0-0.559-0.435-0.9-2.081-1.553
		c-2.393-0.932-3.511-2.206-3.511-4.101c0-1.896,1.398-3.667,4.567-3.667c1.833,0,3.169,0.528,3.822,0.964
		c0.279,0.186,0.435,0.527,0.279,0.839l-0.777,1.584c-0.155,0.28-0.496,0.311-0.745,0.218c0,0-1.398-0.653-2.579-0.653
		c-0.746,0-1.056,0.312-1.056,0.716c0,0.559,0.559,0.744,1.708,1.211c2.393,0.933,4.195,1.958,4.195,4.382
		c0,2.05-1.802,3.79-4.94,3.79c-2.051,0-3.48-0.653-4.132-1.15C220.647,393.653,220.523,393.404,220.647,393.157"/>
	<path clip-path="url(#SVGID_2_)" fill="#002632" d="M238.048,381.909c3.2,0,5.81,2.423,5.81,5.779c0,0.217-0.031,0.621-0.062,0.839
		c-0.031,0.311-0.311,0.528-0.591,0.528h-7.954c0.094,1.273,1.181,2.702,2.984,2.702c0.963,0,1.864-0.372,2.423-0.776
		c0.311-0.187,0.59-0.248,0.807,0l1.275,1.461c0.217,0.217,0.279,0.559-0.032,0.808c-1.025,0.963-2.609,1.708-4.629,1.708
		c-3.728,0-6.369-2.951-6.369-6.523C231.71,384.923,234.351,381.909,238.048,381.909 M240.223,386.88
		c-0.094-1.148-1.088-2.112-2.268-2.112c-1.243,0-2.268,0.932-2.424,2.112H240.223z"/>
	<path clip-path="url(#SVGID_2_)" fill="#002632" d="M250.54,386.788c1.243,0,2.268,0.341,2.268,0.341
		c0.031-1.584-0.466-2.145-1.616-2.145c-1.149,0-2.765,0.249-3.48,0.466c-0.435,0.125-0.652-0.154-0.714-0.559l-0.28-1.615
		c-0.093-0.466,0.155-0.684,0.435-0.776c0.249-0.094,2.237-0.592,4.226-0.592c3.884,0,4.784,2.021,4.784,5.407v6.742
		c0,0.312-0.279,0.59-0.59,0.59h-1.118c-0.218,0-0.373-0.093-0.528-0.435l-0.373-0.838c-0.715,0.651-1.865,1.584-3.791,1.584
		c-2.486,0-4.195-1.616-4.195-4.256C245.568,388.497,247.371,386.788,250.54,386.788 M250.602,392.317
		c0.994,0,1.957-0.839,2.144-1.212v-1.708c0,0-0.839-0.373-1.74-0.373c-1.212,0-2.02,0.684-2.02,1.679
		C248.986,391.634,249.639,392.317,250.602,392.317"/>
	<path clip-path="url(#SVGID_2_)" fill="#002632" d="M260.483,385.482h-1.056c-0.342,0-0.591-0.279-0.591-0.59v-2.082
		c0-0.342,0.249-0.591,0.591-0.591h1.056v-3.355c0-4.101,2.517-6.276,5.81-6.276c1.647,0,3.107,0.715,3.667,1.212
		c0.186,0.155,0.248,0.497,0.124,0.715l-1.057,1.988c-0.124,0.248-0.466,0.311-0.745,0.155c-0.404-0.248-1.15-0.621-1.834-0.621
		c-1.336,0-2.081,1.025-2.081,2.827v3.355h3.107c0.342,0,0.59,0.249,0.59,0.591v2.082c0,0.311-0.248,0.59-0.59,0.59h-3.107v8.575
		c0,0.311-0.28,0.591-0.59,0.591h-2.704c-0.31,0-0.59-0.28-0.59-0.591V385.482z"/>
	<path clip-path="url(#SVGID_2_)" fill="#002632" d="M275.833,381.909c3.511,0,6.37,2.983,6.37,6.494
		c0,3.573-2.859,6.555-6.37,6.555c-3.511,0-6.369-2.981-6.369-6.555C269.464,384.893,272.322,381.909,275.833,381.909
		 M275.833,391.604c1.647,0,2.983-1.431,2.983-3.2c0-1.74-1.336-3.138-2.983-3.138c-1.678,0-2.983,1.397-2.983,3.138
		C272.85,390.173,274.155,391.604,275.833,391.604"/>
	<path clip-path="url(#SVGID_2_)" fill="#002632" d="M290.375,381.909c3.511,0,6.37,2.983,6.37,6.494
		c0,3.573-2.859,6.555-6.37,6.555c-3.511,0-6.369-2.981-6.369-6.555C284.006,384.893,286.864,381.909,290.375,381.909
		 M290.375,391.604c1.647,0,2.983-1.431,2.983-3.2c0-1.74-1.336-3.138-2.983-3.138c-1.678,0-2.983,1.397-2.983,3.138
		C287.392,390.173,288.697,391.604,290.375,391.604"/>
	<path clip-path="url(#SVGID_2_)" fill="#002632" d="M304.731,381.909c1.242,0,2.206,0.342,2.765,0.56v-8.979
		c0-0.311,0.279-0.59,0.59-0.59h2.641c0.311,0,0.59,0.279,0.59,0.59v20.568c0,0.311-0.279,0.591-0.59,0.591h-1.212
		c-0.279,0-0.497-0.249-0.59-0.591l-0.311-0.963c0,0-1.46,1.863-4.07,1.863c-3.387,0-5.965-2.951-5.965-6.523
		C298.58,384.798,301.034,381.909,304.731,381.909 M305.011,391.604c1.647,0,2.393-1.274,2.61-2.021v-3.604
		c0,0-0.87-0.714-2.423-0.714c-1.741,0-3.014,1.429-3.014,3.169C302.184,390.173,303.364,391.604,305.011,391.604"/>
	<path clip-path="url(#SVGID_2_)" fill="#002632" d="M327.57,381.909c1.927,0,3.418,0.777,4.598,2.206
		c0.218,0.28,0.156,0.651-0.155,0.87l-1.429,1.367c-0.28,0.248-0.559,0.093-0.777-0.094c-0.497-0.559-1.274-0.994-2.144-0.994
		c-1.678,0-3.045,1.43-3.045,3.17c0,1.771,1.337,3.169,3.014,3.169c1.336,0,1.926-0.653,2.486-1.182
		c0.217-0.217,0.528-0.278,0.777-0.093l1.336,1.15c0.31,0.248,0.435,0.559,0.217,0.869c-1.057,1.646-2.703,2.609-4.909,2.609
		c-3.511,0-6.587-2.796-6.587-6.523C320.952,384.767,324.09,381.909,327.57,381.909"/>
	<path clip-path="url(#SVGID_2_)" fill="#002632" d="M339.223,386.788c1.243,0,2.268,0.341,2.268,0.341
		c0.031-1.584-0.466-2.145-1.616-2.145c-1.149,0-2.765,0.249-3.48,0.466c-0.435,0.125-0.652-0.154-0.714-0.559l-0.28-1.615
		c-0.093-0.466,0.155-0.684,0.435-0.776c0.249-0.094,2.237-0.592,4.226-0.592c3.884,0,4.784,2.021,4.784,5.407v6.742
		c0,0.312-0.279,0.59-0.59,0.59h-1.118c-0.218,0-0.373-0.093-0.528-0.435l-0.373-0.838c-0.715,0.651-1.865,1.584-3.791,1.584
		c-2.486,0-4.195-1.616-4.195-4.256C334.251,388.497,336.054,386.788,339.223,386.788 M339.285,392.317
		c0.994,0,1.957-0.839,2.144-1.212v-1.708c0,0-0.839-0.373-1.74-0.373c-1.212,0-2.02,0.684-2.02,1.679
		C337.669,391.634,338.322,392.317,339.285,392.317"/>
	<path clip-path="url(#SVGID_2_)" fill="#002632" d="M348.421,382.811c0-0.343,0.28-0.591,0.59-0.591h1.181
		c0.28,0,0.435,0.155,0.528,0.373l0.435,1.149c0.466-0.497,1.989-1.833,4.381-1.833c3.946,0,5.531,2.952,5.531,6.183v5.966
		c0,0.311-0.28,0.591-0.591,0.591h-2.548c-0.341,0-0.59-0.28-0.59-0.591v-6.151c0-1.616-0.839-2.641-2.33-2.641
		c-1.616,0-2.61,1.117-2.921,1.957v6.835c0,0.435-0.186,0.591-0.776,0.591h-2.3c-0.31,0-0.59-0.28-0.59-0.591V382.811z"/>
	<path clip-path="url(#SVGID_2_)" fill="#002632" d="M365.107,385.482h-1.056c-0.311,0-0.559-0.279-0.559-0.59v-2.082
		c0-0.342,0.248-0.591,0.559-0.591h1.056v-3.448c0-0.312,0.28-0.59,0.59-0.59l2.548-0.032c0.311,0,0.56,0.28,0.56,0.591v3.479h2.734
		c0.341,0,0.59,0.249,0.59,0.591v2.082c0,0.311-0.249,0.59-0.59,0.59h-2.734v4.971c0,0.87,0.466,0.994,0.963,0.994
		c0.528,0,1.18-0.217,1.522-0.341c0.342-0.125,0.59,0.031,0.684,0.341l0.621,1.958c0.124,0.31-0.031,0.621-0.342,0.745
		c-0.155,0.094-2.175,0.808-3.697,0.808c-2.392,0-3.449-1.491-3.449-4.008V385.482z"/>
	<path clip-path="url(#SVGID_2_)" fill="#002632" d="M374.896,375.664c0-1.18,0.931-2.144,2.112-2.144
		c1.212,0,2.175,0.964,2.175,2.144c0,1.181-0.963,2.145-2.175,2.145C375.828,377.809,374.896,376.845,374.896,375.664
		 M375.176,382.811c0-0.343,0.28-0.591,0.59-0.591h2.579c0.311,0,0.59,0.248,0.59,0.591v11.247c0,0.311-0.279,0.591-0.59,0.591
		h-2.579c-0.31,0-0.59-0.28-0.59-0.591V382.811z"/>
	<path clip-path="url(#SVGID_2_)" fill="#002632" d="M382.664,382.811c0-0.343,0.28-0.591,0.59-0.591h1.181
		c0.28,0,0.435,0.155,0.528,0.373l0.435,1.149c0.466-0.497,1.989-1.833,4.381-1.833c3.946,0,5.531,2.952,5.531,6.183v5.966
		c0,0.311-0.28,0.591-0.591,0.591h-2.548c-0.341,0-0.59-0.28-0.59-0.591v-6.151c0-1.616-0.839-2.641-2.33-2.641
		c-1.616,0-2.61,1.117-2.921,1.957v6.835c0,0.435-0.186,0.591-0.776,0.591h-2.3c-0.31,0-0.59-0.28-0.59-0.591V382.811z"/>
	<path clip-path="url(#SVGID_2_)" fill="#002632" d="M404.197,381.909c3.2,0,5.811,2.423,5.811,5.779
		c0,0.217-0.032,0.621-0.063,0.839c-0.031,0.311-0.31,0.528-0.59,0.528h-7.954c0.093,1.273,1.181,2.702,2.983,2.702
		c0.963,0,1.864-0.372,2.423-0.776c0.311-0.187,0.59-0.248,0.808,0l1.274,1.461c0.217,0.217,0.279,0.559-0.031,0.808
		c-1.026,0.963-2.61,1.708-4.63,1.708c-3.728,0-6.369-2.951-6.369-6.523C397.859,384.923,400.5,381.909,404.197,381.909
		 M406.372,386.88c-0.093-1.148-1.087-2.112-2.268-2.112c-1.243,0-2.268,0.932-2.423,2.112H406.372z"/>
</g>
</svg>
